<svg xmlns="http://www.w3.org/2000/svg" viewBox="0 0 90 90"><defs><style>.cls-1{fill:#bdccd4;}.cls-2{fill:#333;}</style></defs><title>image par defaut 2 90x90 px</title><g id="Calque_2" data-name="Calque 2"><g id="Calque_1-2" data-name="Calque 1"><rect class="cls-1" width="90" height="90"/><path class="cls-2" d="M8.54,47.48c1.65.67,3.35.24,5,.1,4.74-.39,9.46-.92,14.19-1.32a9.68,9.68,0,0,1,2.6.34c1.65.32,3.28.8,4.94,1a9.19,9.19,0,0,1,5.2,2.16c2.24,2,5,3.15,7.7,4.46a14.49,14.49,0,0,1,7,7.1,2.51,2.51,0,0,1,.09.45c-.8-.18-1.51-.36-2.23-.5a8.91,8.91,0,0,0-1.61-.22c-.6,0-1,.31-1.1,1.12a1.15,1.15,0,0,1,1.77,0,2.69,2.69,0,0,0,1.41.53,4.76,4.76,0,0,1,3.89,2.44,30.86,30.86,0,0,0,2,2.74l.22-.12L57.57,63.7l.22-.21a22.92,22.92,0,0,0,2.41.73c1.22.24,2.47.35,3.71.53.6.09,1.2.21,1.83.33-.12-.71-.75-.93-1.37-1.06-.81-.17-1.64-.23-2.46-.35a2.06,2.06,0,0,1-1-.42l1.89-.75a9,9,0,0,0-1.46-.34,3.94,3.94,0,0,0-1.27.18,2.85,2.85,0,0,1-3-.85q-2.64-2.88-5.24-5.8a7.77,7.77,0,0,1-.54-.81,7.64,7.64,0,0,1,3.9.62,6.19,6.19,0,0,0,2.74.52,3.54,3.54,0,0,1,3.2,1.62,10.05,10.05,0,0,0,1,1c.34.38.64.79,1,1.23.47-.31.24-.81,0-1.24s-.83-1.09-1.24-1.64c-.18-.25-.34-.51-.5-.77l.11-.26,7.65,1.67c-.26-1-1-1.27-4.79-2L66.92,55a4.58,4.58,0,0,0-.92-.44,1.43,1.43,0,0,0-.84.09c-2.39,1-3,.42-5.33-.34.23-.07.36-.13.49-.16l.5-.1C67,52.5,71.64,49.19,74.15,43.21c1.14-2.73,1-5.58.69-8.46a18.26,18.26,0,0,1,0-4.27A5.29,5.29,0,0,1,78.4,26.2a24.45,24.45,0,0,0,3.06-1.42L80,24.13a.63.63,0,0,0-.25,0,12.6,12.6,0,0,1-7-1.68A5.24,5.24,0,0,0,71.62,22H69.39a10.79,10.79,0,0,0-2.35.78,21,21,0,0,0-4.11,2.89A16.63,16.63,0,0,1,55.43,30c-2.16.62-4.23,1.56-6.33,2.4s-4.13,1.69-6.2,2.52c-1.54.62-3.15,1.08-4.63,1.82A22.35,22.35,0,0,1,31,38.92c-1.7.23-3.4.52-5.08.86a2.79,2.79,0,0,0-2.1,1.29l4.15.81c-3.83.39-7.53.78-11.23,1.13-2,.19-4.11.26-6.16.51a2.13,2.13,0,0,0-1.54,1,6.52,6.52,0,0,0,.08,2.34l-.59.32Z"/></g></g></svg>