<svg xmlns="http://www.w3.org/2000/svg" viewBox="0 0 163 27.03"><defs><style>.cls-1{fill:#8cc63f;}.cls-2{font-size:11px;fill:#262626;font-family:OpenSans-Regular, Open Sans;}.cls-3{fill:#fff;}</style></defs><title>bouton reediter</title><g id="Calque_2" data-name="Calque 2"><g id="Calque_1-2" data-name="Calque 1"><rect class="cls-1" width="163" height="27.03" rx="13.52" ry="13.52"/><text class="cls-2" transform="translate(76.94 17.25)">REEDITER</text><path class="cls-3" d="M18.64,9.06c-.82,0-1.59,0-2.36,0a1.77,1.77,0,0,0-1.74,1,2,2,0,0,0,.15,2.08.51.51,0,0,1,.07.44A2.13,2.13,0,0,0,15,14.19a.54.54,0,0,1,.06.33,2.19,2.19,0,0,0,.43,1.73.53.53,0,0,1,.1.29,2.09,2.09,0,0,0,2.16,2.3,12,12,0,0,0,5.13-.9,9.68,9.68,0,0,1,1.21-.33.61.61,0,0,0,.52-.64q0-3,0-6a.66.66,0,0,0-.42-.64,2.27,2.27,0,0,1-.72-.49c-.7-.81-1.38-1.65-2-2.5a4.4,4.4,0,0,1-.56-1.7,6.25,6.25,0,0,0-.44-1.12.61.61,0,0,0-.61-.31A1.81,1.81,0,0,0,17.87,6a4.2,4.2,0,0,0,.53,2.54C18.49,8.7,18.55,8.86,18.64,9.06Z"/><path class="cls-3" d="M25.19,11c0-.46.22-.7.67-.7h2.46c.46,0,.68.24.68.72q0,2.94,0,5.88c0,.5-.21.73-.7.74q-1.2,0-2.41,0c-.51,0-.71-.23-.71-.76q0-1.46,0-2.92C25.19,13,25.18,12,25.19,11Zm2.63,4.81a.59.59,0,0,0-.56-.62.61.61,0,0,0-.61.61.61.61,0,0,0,.58.61A.59.59,0,0,0,27.82,15.8Z"/></g></g></svg>