<svg xmlns="http://www.w3.org/2000/svg" viewBox="0 0 107.81 27.03"><defs><style>.cls-1{fill:#c1272d;}.cls-2{font-size:8.25px;font-family:OpenSans-Regular, Open Sans;}.cls-2,.cls-3{fill:#fff;}</style></defs><title>bouton bloquer auteur</title><g id="Calque_2" data-name="Calque 2"><g id="Calque_1-2" data-name="Calque 1"><rect class="cls-1" width="107.81" height="27.03" rx="13.52" ry="13.52"/><text class="cls-2" transform="translate(42.01 11.36) scale(1.12 1)">Bloquer<tspan x="0" y="9.9">L’auteur</tspan></text><path class="cls-3" d="M13.87,12.2c0-.57,0-1.09,0-1.6a5.48,5.48,0,1,1,11,.11c0,.48,0,1,0,1.46.2,0,.36,0,.51.05a1.09,1.09,0,0,1,.77.93,3.26,3.26,0,0,1,0,.48q0,3.81,0,7.63A2.62,2.62,0,0,1,26,22a1,1,0,0,1-1,.72H13.69a1,1,0,0,1-1.1-1,3.23,3.23,0,0,1,0-.45c0-2.59,0-5.18,0-7.77a2.13,2.13,0,0,1,.21-.89A1,1,0,0,1,13.87,12.2Zm8.67,0c0-.65,0-1.29,0-1.91a3.21,3.21,0,0,0-2.91-2.92,3.17,3.17,0,0,0-3.35,2.35,16.83,16.83,0,0,0-.19,2.48Zm-4.28,6.56c0,.33,0,.67,0,1,0,.5.16.67.65.68h.9c.47,0,.64-.19.65-.65,0-.67,0-1.33,0-2a1,1,0,0,1,.16-.5,1.54,1.54,0,0,0-.19-1.93,1.59,1.59,0,0,0-2-.11A1.45,1.45,0,0,0,18,17.11a1.64,1.64,0,0,1,.24,1C18.25,18.31,18.25,18.52,18.25,18.73Z"/></g></g></svg>