<svg xmlns="http://www.w3.org/2000/svg" viewBox="0 0 234.61 58.65"><defs><style>.cls-1{fill:#262626;}.cls-2{font-size:14.08px;fill:#f2f2f2;font-family:OpenSans-Regular, Open Sans;}.cls-3{fill:#8cc63f;}</style></defs><title>bouton carte interactive</title><g id="Calque_2" data-name="Calque 2"><g id="Calque_1-2" data-name="Calque 1"><rect class="cls-1" width="234.61" height="58.65" rx="24.14" ry="24.14"/><text class="cls-2" transform="translate(116.25 25.29) scale(0.92 1)">CARTE <tspan x="0" y="16.89">INTERACTIVE</tspan></text><path class="cls-3" d="M49.5,36.94a49.18,49.18,0,0,1-6.35-6.35,25.39,25.39,0,0,1-4.46-7.44,11.37,11.37,0,0,1,5.8-14.41c7-3.4,15.61,1.21,16.48,8.81a13.89,13.89,0,0,1-2,8.51A41.42,41.42,0,0,1,49.5,36.94ZM43.56,17.73a6,6,0,0,0,12.09.2,6,6,0,0,0-12.09-.2Z"/><path class="cls-3" d="M45.84,38.89c-1.77.46-3.5.85-5.19,1.37a6.83,6.83,0,0,0-2,1.08c-.56.41-.56.86,0,1.22a11.41,11.41,0,0,0,2.79,1.38,29.61,29.61,0,0,0,16.29,0,10.66,10.66,0,0,0,2.68-1.28c.73-.45.72-1,0-1.46a14.6,14.6,0,0,0-3-1.35c-1.23-.37-2.53-.52-3.8-.76L53.06,39c.78-.73,1.48-1.38,2.2-2a.62.62,0,0,1,.46-.11,15.5,15.5,0,0,1,6,2.17c2.55,1.77,2.5,4.27-.1,6a14.63,14.63,0,0,1-5.39,2,34,34,0,0,1-13.85-.14,13.34,13.34,0,0,1-4.81-1.88c-1.63-1.12-2.27-2.66-1.68-4a4.9,4.9,0,0,1,2.24-2.29,16,16,0,0,1,5.1-1.72.66.66,0,0,1,.47,0C44.45,37.6,45.17,38.27,45.84,38.89Z"/></g></g></svg>