<svg xmlns="http://www.w3.org/2000/svg" viewBox="0 0 107.81 27.03"><defs><style>.cls-1{fill:#c1272d;}.cls-2{font-size:8.25px;font-family:OpenSans-Regular, Open Sans;}.cls-2,.cls-3{fill:#fff;}</style></defs><title>bouton supprimler</title><g id="Calque_2" data-name="Calque 2"><g id="Calque_1-2" data-name="Calque 1"><rect class="cls-1" width="107.81" height="27.03" rx="13.52" ry="13.52"/><text class="cls-2" transform="translate(42.01 15.31) scale(1.12 1)">Supprimer</text><path class="cls-3" d="M24.22,7.19h2.55a1.61,1.61,0,0,1,1.77,1.74c0,.27,0,.54,0,.81,0,.44-.18.61-.62.62h-.5c-.07.7-.13,1.38-.19,2.05l-.66,7.25c0,.36-.06.72-.09,1.07a1.61,1.61,0,0,1-1.69,1.56H17.25a1.59,1.59,0,0,1-1.68-1.59q-.44-5-.89-10c0-.11,0-.22-.05-.38h-.55a.5.5,0,0,1-.55-.54c0-.37,0-.74,0-1.11A1.55,1.55,0,0,1,15.1,7.19c.77,0,1.55,0,2.33,0h.39c0-.22,0-.41,0-.6A1.56,1.56,0,0,1,19.4,5h3.17a1.56,1.56,0,0,1,1.65,1.51C24.23,6.75,24.22,7,24.22,7.19Zm-9.7,2.13h13c0-.16,0-.29,0-.43,0-.49-.22-.69-.71-.69H15.23c-.5,0-.7.2-.71.69C14.52,9,14.52,9.16,14.52,9.32Zm7.91,9.09c0,.06,0,.26.06.35A.82.82,0,0,0,23,19c.28,0,.4-.25.43-.52.06-.69.12-1.39.18-2.08.1-1.07.2-2.14.29-3.22a.53.53,0,0,0-.45-.64.52.52,0,0,0-.56.54Zm-2.81,0c-.1-1.17-.2-2.27-.3-3.38-.06-.66-.12-1.32-.19-2a.5.5,0,1,0-1,.07c0,.08,0,.16,0,.23l.25,2.78c.07.78.13,1.56.21,2.35,0,.45.39.68.74.49A.51.51,0,0,0,19.62,18.42ZM23.21,7.17c0-.2,0-.38,0-.56A.55.55,0,0,0,22.62,6q-1.6,0-3.2,0a.55.55,0,0,0-.58.57c0,.18,0,.35,0,.55Z"/><path class="cls-3" d="M14.52,9.32c0-.16,0-.3,0-.43,0-.49.21-.69.71-.69H26.82c.49,0,.7.2.71.69,0,.13,0,.27,0,.43Z"/></g></g></svg>