<svg xmlns="http://www.w3.org/2000/svg" viewBox="0 0 234.61 58.65"><defs><style>.cls-1{fill:#262626;}.cls-2{font-size:14.08px;fill:#f2f2f2;font-family:OpenSans-Regular, Open Sans;}.cls-3{fill:#c1272d;}</style></defs><title>bouton nous contacter</title><g id="Calque_2" data-name="Calque 2"><g id="Calque_1-2" data-name="Calque 1"><rect class="cls-1" width="234.61" height="58.65" rx="24.14" ry="24.14"/><text class="cls-2" transform="translate(94.61 33.38) scale(0.92 1)">NOUS CONTACTER</text><path class="cls-3" d="M27.89,28.85c0-2.65-.06-5.25,0-7.84a13,13,0,0,1,.61-4A11.75,11.75,0,0,1,38.15,9.1a12.56,12.56,0,0,1,12.62,4.82A10.56,10.56,0,0,1,53,20.34a1.71,1.71,0,0,1-1.93,1.86H49.57c-1.19,0-1.83-.53-1.9-1.63a6.57,6.57,0,0,0-1.77-4.36,7.21,7.21,0,0,0-7.78-1.94c-2.86.91-4.62,2.91-4.78,5.75s0,5.82,0,8.86H53.37c2.26,0,3.25.9,3.25,3q0,7,0,14c0,2-1,3-3.18,3H27.54c-2.24,0-3.22-.92-3.22-3,0-4.5.07-9,0-13.5C24.24,30.34,24.87,28.84,27.89,28.85Z"/></g></g></svg>