<svg xmlns="http://www.w3.org/2000/svg" viewBox="0 0 107.81 27.03"><defs><style>.cls-1{fill:#262626;}.cls-2{font-size:8.25px;fill:#fff;font-family:OpenSans-Regular, Open Sans;}.cls-3{fill:#8cc63f;}</style></defs><title>bouton ok cookies</title><g id="Calque_2" data-name="Calque 2"><g id="Calque_1-2" data-name="Calque 1"><rect class="cls-1" width="107.81" height="27.03" rx="13.52" ry="13.52"/><text class="cls-2" transform="translate(42.01 16.45) scale(1.12 1)">D’ACCORD</text><path class="cls-3" d="M17.28,8.9c-.84,0-1.63,0-2.41,0a1.81,1.81,0,0,0-1.77,1A2,2,0,0,0,13.25,12a.52.52,0,0,1,.08.44,2.18,2.18,0,0,0,.22,1.67.56.56,0,0,1,.07.34A2.24,2.24,0,0,0,14,16.25a.54.54,0,0,1,.1.29,2.13,2.13,0,0,0,2.21,2.35A12.28,12.28,0,0,0,21.58,18a9.88,9.88,0,0,1,1.24-.34.62.62,0,0,0,.53-.65q0-3.08,0-6.15a.68.68,0,0,0-.43-.65,2.32,2.32,0,0,1-.74-.5c-.71-.83-1.4-1.69-2.08-2.55a4.49,4.49,0,0,1-.57-1.74,6.38,6.38,0,0,0-.45-1.14.62.62,0,0,0-.62-.32,1.84,1.84,0,0,0-2,1.87A4.29,4.29,0,0,0,17,8.38C17.12,8.53,17.19,8.7,17.28,8.9Z"/><path class="cls-3" d="M24,10.87c0-.47.22-.71.68-.72h2.52c.47,0,.69.24.69.74q0,3,0,6c0,.51-.22.75-.71.75q-1.23,0-2.46,0c-.52,0-.72-.24-.72-.77q0-1.49,0-3C24,12.88,24,11.87,24,10.87Zm2.69,4.91a.61.61,0,0,0-.57-.63.62.62,0,0,0-.62.62.63.63,0,0,0,.59.62A.61.61,0,0,0,26.65,15.78Z"/></g></g></svg>