<svg xmlns="http://www.w3.org/2000/svg" viewBox="0 0 231.94 57.98"><defs><style>.cls-1{fill:#262626;}.cls-2{font-size:13.92px;fill:#f2f2f2;font-family:OpenSans-Regular, Open Sans;}.cls-3{fill:#8cc63f;}</style></defs><title>bouton saisir obs</title><g id="Calque_2" data-name="Calque 2"><g id="Calque_1-2" data-name="Calque 1"><rect class="cls-1" width="231.94" height="57.98" rx="24.14" ry="24.14"/><text class="cls-2" transform="translate(112.88 25) scale(0.92 1)">SAISIR UNE<tspan x="-21.55" y="16.7" xml:space="preserve">      OBSERVATION</tspan></text><path class="cls-3" d="M40.2,10.23c0,1.88,0,3.65,0,5.42s-.78,2.59-2.69,2.6H32c0,.35,0,.6,0,.85,0,8.8,0,17.6,0,26.4,0,.78.26.93,1,.93q13.2,0,26.4,0c.82,0,1-.22,1-1,0-4.45,0-8.9,0-13.35,0-.23-.08-.53,0-.69.23-.33.53-.73.88-.83.52-.14.9.23,1,.76a2.78,2.78,0,0,1,0,.62q0,6.91,0,13.82c0,1.79-.8,2.56-2.64,2.56h-27c-2,0-2.76-.72-2.76-2.69q0-13.9,0-27.8a2,2,0,0,1,.67-1.59q3.77-3.62,7.49-7.29a2,2,0,0,1,1.55-.63c6.71,0,13.43,0,20.14,0a2.2,2.2,0,0,1,2.52,2.45c0,.78,0,1.56,0,2.34s-.35,1.32-1,1.31-1-.44-1-1.34c0-.65,0-1.31,0-2s-.17-.93-.93-.93c-5.06,0-10.11,0-15.17,0Zm-2,1.8-4.41,4.22h4.41Z"/><path class="cls-3" d="M42.07,39.54l1.67-5.83H38.48a2,2,0,0,1-.94-.08c-.31-.2-.7-.57-.7-.88s.38-.66.69-.88a1.68,1.68,0,0,1,.86-.09c2.3,0,4.6,0,6.9,0a1.46,1.46,0,0,0,.91-.32C48,29.75,49.72,28,51.48,26.32c.07-.07.12-.15.29-.34H38.35c-.27,0-.62.08-.78-.05a2,2,0,0,1-.75-1c-.1-.48.29-.81.81-.87a7.14,7.14,0,0,1,.8,0c4.87,0,9.73,0,14.6,0a1.71,1.71,0,0,0,1.32-.54q4.15-4.08,8.33-8.13c1.86-1.81,3.71-1.83,5.54,0a6.68,6.68,0,0,1,1.59,2.27,3.12,3.12,0,0,1-1.14,3.36q-5.89,5.7-11.74,11.43c-2.27,2.21-4.53,4.42-6.82,6.61a2.87,2.87,0,0,1-1.13.67c-1.92.55-3.84,1.13-5.79,1.54a16,16,0,0,1-3,.09H38.08c-.88,0-1.28-.29-1.3-.92s.39-1,1.32-1ZM61.89,19.18,46.18,34.53,49,37.25,64.76,22Zm4.43,1.38c1.46-1.13,1.93-1.74,1.59-2.43a3.43,3.43,0,0,0-2.26-2c-1.2-.24-1.61.94-2.35,1.48ZM45,36.3l-.77,2.79,2.83-.76Z"/></g></g></svg>