<svg xmlns="http://www.w3.org/2000/svg" viewBox="0 0 45.75 40"><defs><style>.cls-1{fill:#999;}</style></defs><title>icone twitter</title><g id="Calque_2" data-name="Calque 2"><g id="Calque_1-2" data-name="Calque 1"><path class="cls-1" d="M12.14,31.4a10.1,10.1,0,0,1-6.81-6q-.09-.22-.17-.44c-.44-1.24-.14-1.67,1.1-1.55-.63-.6-1.27-1.14-1.83-1.76A10.48,10.48,0,0,1,1.76,15c-.09-1.48.3-1.74,1.55-1.14l.69.29c-.27-.44-.44-.71-.59-1A11,11,0,0,1,2.92,2.62c.5-1.09,1-1.14,1.73-.22a24.85,24.85,0,0,0,15.88,9.3,8.63,8.63,0,0,0,.87.07A33.27,33.27,0,0,1,22.21,7c2.22-6.88,10.4-9.2,15.58-4.47a1.12,1.12,0,0,0,1.35.3c1.35-.59,2.69-1.2,4.05-1.75A4.38,4.38,0,0,1,44.35.89a3.37,3.37,0,0,1,.06,1.3c-.42,1-1,2-1.54,3.19a12.9,12.9,0,0,1,1.73-.63,1.33,1.33,0,0,1,1.07.17A1.21,1.21,0,0,1,45.55,6c-1.17,1.44-2.42,2.8-3.6,4.22a2.33,2.33,0,0,0-.57,1.26C41,21.95,36.93,30.27,28.58,36a23.69,23.69,0,0,1-13.81,4,24.7,24.7,0,0,1-14-4.23C.4,35.55.24,35,0,34.65c.41-.17.82-.52,1.21-.49a17.41,17.41,0,0,0,9.64-2C11.25,32,11.62,31.72,12.14,31.4Z"/></g></g></svg>