<svg xmlns="http://www.w3.org/2000/svg" viewBox="0 0 55.97 80"><defs><style>.cls-1{fill:#939498;}</style></defs><title>icone rapide carte</title><g id="Calque_2" data-name="Calque 2"><g id="Calque_1-2" data-name="Calque 1"><path class="cls-1" d="M27.68,58.67A98.46,98.46,0,0,1,15,46,50.75,50.75,0,0,1,6,31.08,22.72,22.72,0,0,1,17.63,2.27c14-6.8,31.29,2.42,33,17.62.71,6.16-1.06,11.74-4,17C41.9,45.38,35.15,52.22,27.68,58.67ZM15.79,20.24c-.19,6.42,5.23,11.88,12,12A12.11,12.11,0,0,0,40,20.65c.21-6.4-5.23-11.84-12-12A11.94,11.94,0,0,0,15.79,20.24Z"/><path class="cls-1" d="M20.35,62.57c-3.54.92-7,1.7-10.39,2.74A13.7,13.7,0,0,0,6,67.48c-1.12.82-1.13,1.71,0,2.44a22.88,22.88,0,0,0,5.59,2.75,59.46,59.46,0,0,0,32.65,0,21.38,21.38,0,0,0,5.36-2.57c1.45-.9,1.45-2.06-.05-2.92a29.29,29.29,0,0,0-6.11-2.71c-2.47-.73-5.07-1-7.62-1.53-.27-.05-.54-.13-1.07-.25,1.57-1.45,3-2.77,4.4-4a1.24,1.24,0,0,1,.93-.22c4.24.84,8.43,1.84,12,4.34,5.11,3.54,5,8.55-.2,12a29.36,29.36,0,0,1-10.81,3.93,68.28,68.28,0,0,1-27.75-.28,26.77,26.77,0,0,1-9.63-3.76C.53,72.44-.75,69.36.43,66.61A9.82,9.82,0,0,1,4.92,62,32.15,32.15,0,0,1,15.15,58.6a1.32,1.32,0,0,1,.94.09C17.57,60,19,61.32,20.35,62.57Z"/></g></g></svg>