<svg xmlns="http://www.w3.org/2000/svg" viewBox="0 0 47.74 45.85"><defs><style>.cls-1{fill:#fff;}.cls-2{fill:#666;}.cls-3{fill:#8cc63f;}.cls-4{fill:#f2f2f2;}</style></defs><title>icone courrier electronique</title><g id="Calque_2" data-name="Calque 2"><g id="Calque_1-2" data-name="Calque 1"><path class="cls-1" d="M0,45.85v-1Q0,31.67,0,18.49A1.6,1.6,0,0,1,.73,17Q11.91,8.72,23,.36a1.14,1.14,0,0,1,1.66,0C32.12,5.94,39.57,11.48,47,17.05a1.76,1.76,0,0,1,.71,1.15c0,9.07,0,18.14,0,27.21,0,.12,0,.25,0,.44Zm23.86-17.5L3.15,44.4H44.61ZM46,18.16,28.45,30,46,43.55ZM19.3,30,1.76,18.19V43.47c.18-.12.29-.17.38-.24Zm12.1-9.53a2.43,2.43,0,0,0-2.24.53c-2.33,1.83-5,1.8-7.7,1a5.1,5.1,0,0,1-3.77-5c-.12-4.66,3.28-7.9,8.67-6.63a4.09,4.09,0,0,1,3.2,3.29,4.49,4.49,0,0,1-1.37,4.41,5.12,5.12,0,0,1-1.43.67,8.52,8.52,0,0,1,0-1.42c.33-1.73.7-3.44,1.06-5.17-1.65-.26-1.91-.2-2.32.53a3.34,3.34,0,0,0-5,.71,5.74,5.74,0,0,0-1.28,4.08,3,3,0,0,0,3.53,2.9,8.62,8.62,0,0,0,1.64-.66c.64,1,1.67.79,2.64.58a5.62,5.62,0,0,0,4-5,5.83,5.83,0,0,0-3.25-5.88A8,8,0,0,0,16.28,15.6a6.87,6.87,0,0,0,3.53,7.28,10.72,10.72,0,0,0,8.42.34A5.31,5.31,0,0,0,31.41,20.42Z"/><path class="cls-2" d="M23.88,28.35l20.73,16H3.15Z"/><path class="cls-2" d="M46,18.16V43.55L28.45,30Z"/><path class="cls-2" d="M19.3,30,2.14,43.22c-.09.07-.2.13-.38.24V18.19Z"/><path class="cls-3" d="M31.41,20.42a5.31,5.31,0,0,1-3.18,2.8,10.72,10.72,0,0,1-8.42-.34,6.87,6.87,0,0,1-3.53-7.28A8,8,0,0,1,27.82,9.38a5.83,5.83,0,0,1,3.25,5.88,5.62,5.62,0,0,1-4,5c-1,.22-2,.44-2.64-.58a8.62,8.62,0,0,1-1.64.66,3,3,0,0,1-3.53-2.9,5.74,5.74,0,0,1,1.28-4.08,3.34,3.34,0,0,1,5-.71c.41-.73.68-.8,2.32-.53-.36,1.72-.73,3.44-1.06,5.17a8.52,8.52,0,0,0,0,1.42,5.12,5.12,0,0,0,1.43-.67,4.49,4.49,0,0,0,1.37-4.41,4.09,4.09,0,0,0-3.2-3.29C21,9.1,17.57,12.34,17.7,17a5.1,5.1,0,0,0,3.77,5c2.69.77,5.37.8,7.7-1A2.43,2.43,0,0,1,31.41,20.42ZM21.07,16.88c.18,1.16.54,1.86,1.24,2.06a1.79,1.79,0,0,0,2.11-1.13A10.82,10.82,0,0,0,25.12,15a1.45,1.45,0,0,0-1-1.68,1.54,1.54,0,0,0-1.86.72A24.86,24.86,0,0,0,21.07,16.88Z"/><path class="cls-4" d="M21.07,16.88a24.86,24.86,0,0,1,1.15-2.78,1.54,1.54,0,0,1,1.86-.72,1.45,1.45,0,0,1,1,1.68,10.82,10.82,0,0,1-.71,2.76,1.79,1.79,0,0,1-2.11,1.13C21.62,18.74,21.25,18,21.07,16.88Z"/></g></g></svg>