<svg xmlns="http://www.w3.org/2000/svg" viewBox="0 0 49.48 44.84"><defs><style>.cls-1{fill:#8cc63f;}</style></defs><title>icone dialogue-echange</title><g id="Calque_2" data-name="Calque 2"><g id="Calque_1-2" data-name="Calque 1"><path class="cls-1" d="M.24,40.23c.66-2.47,1.2-4.83,1.93-7.14a5.42,5.42,0,0,0-.32-4.29A20.27,20.27,0,0,1,6.63,5.41,20.11,20.11,0,0,1,22.57.1a20.45,20.45,0,0,1,6,39.17,19.79,19.79,0,0,1-18-1,2.47,2.47,0,0,0-2.06-.25c-2.51.72-5,1.37-7.58,2Z"/><path class="cls-1" d="M41.58,11a17.66,17.66,0,0,1,5.81,6.7,18.43,18.43,0,0,1-.21,17.42,1.69,1.69,0,0,0,0,1.1c.67,2.6,1.38,5.2,2.1,7.88a4,4,0,0,1-.53-.06c-2.36-.63-4.73-1.24-7.09-1.9a1.88,1.88,0,0,0-1.57.19A18.3,18.3,0,0,1,24.2,43.59c-.15-.06-.3-.14-.54-.25,7.53-1.32,13.28-5.11,17-11.73S44.42,18.14,41.58,11Z"/></g></g></svg>