<svg xmlns="http://www.w3.org/2000/svg" viewBox="0 0 120 101.57"><defs><style>.cls-1{fill:#939498;}.cls-2{fill:#8cc63f;}.cls-3{fill:#949599;}.cls-4{fill:none;opacity:0.93;}</style></defs><title>LOGO</title><g id="Calque_2" data-name="Calque 2"><g id="Calque_1-2" data-name="Calque 1"><path class="cls-1" d="M34.36,49.08l13-15.48c4.16-4.94,8.34-9.86,12.46-14.83a14.29,14.29,0,0,1,17-4.23A14,14,0,0,1,85.14,29.2a13.74,13.74,0,0,1-11,12.11c-7.57,1.56-15.18,3-22.76,4.48L37.1,48.6C36.34,48.75,35.58,48.87,34.36,49.08Z"/><path class="cls-2" d="M70.54,11.59l6.89-3.52Q84.58,4.45,91.73.85c2.5-1.27,3.13-1.19,5.18.76,5.44,5.17,5,14.42-1,18.57.1-2.07-.47-3.83-2.39-4.81a4.57,4.57,0,0,0-6.63,2.74c-.39,1.14-.68,2.32-1.15,3.93a17.08,17.08,0,0,0-6.21-7.64A19.24,19.24,0,0,0,70.54,11.59Z"/><path class="cls-2" d="M67.21,44.57,40.8,56.07c-2.29,1-4.58,2-7.25,3.12,2.18-3.35,4.13-6.37,6.12-9.36a1.62,1.62,0,0,1,1-.53q13-2.49,26-4.94a.6.6,0,0,1,.15,0Z"/><path class="cls-3" d="M67.54,46.17,62.28,67.33a11.35,11.35,0,0,1-.48-1.11c-1.38-4.8-2.75-9.6-4.14-14.39-.21-.73-.31-1.29.57-1.66C61.2,48.93,64.15,47.63,67.54,46.17Z"/><path class="cls-2" d="M15.63,80v19.2q-.75-.9-1.84-2.15t-2.37-2.66L8.8,91.54q-1.35-1.48-2.61-2.89T3.89,86q-1-1.22-1.71-2.12L2,83.6l-.28-.37.08.82V98.39H0V79.19q.75,1,1.82,2.18T4.18,84l2.61,2.85,2.58,2.84q1.25,1.38,2.33,2.6t1.77,2.12a1.36,1.36,0,0,0,.21.32l.28.37-.08-.85V80Z"/><path class="cls-2" d="M33.43,99.11q-.51-1.18-1.21-2.9t-1.44-3.65h-7Q23,94.48,22.3,96.2t-1.21,2.9H19.35l1-2.45q.64-1.53,1.39-3.35l1.54-3.79,1.54-3.79q.74-1.83,1.38-3.34t1-2.47q.39,1,1,2.47t1.39,3.34l1.56,3.79,1.55,3.79,1.38,3.35q.63,1.53,1,2.45ZM27,84.4q-.51,1.21-1.22,3T24.34,91H30.2l-1.47-3.68q-.69-1.75-1.21-3a2.54,2.54,0,0,1-.13-.35c-.05-.16-.09-.31-.13-.45,0,.14-.08.29-.13.45A2.64,2.64,0,0,1,27,84.4Z"/><path class="cls-1" d="M91.49,99.11V80.75h4.45a7.8,7.8,0,0,1,2.24.32,5.59,5.59,0,0,1,1.91,1,4.94,4.94,0,0,1,1.34,1.67,5.29,5.29,0,0,1,.5,2.39,6.47,6.47,0,0,1-.69,2.93,4.65,4.65,0,0,1-2.29,2.13l.62,1,.85,1.4,1,1.58,1,1.57.85,1.36.62,1h-2.13q-.21-.31-.54-.85l-.75-1.21-.87-1.41-.9-1.47-.84-1.36L97.1,91.7a2.73,2.73,0,0,1-.54.05H93.24v7.35Zm1.75-9H96A4.58,4.58,0,0,0,98,89.67a3.75,3.75,0,0,0,1.3-1,3.7,3.7,0,0,0,.67-1.29,4.62,4.62,0,0,0,.19-1.25,3.61,3.61,0,0,0-.27-1.36,3.67,3.67,0,0,0-.78-1.2,3.8,3.8,0,0,0-1.31-.85A4.86,4.86,0,0,0,96,82.4H93.24Z"/><path class="cls-1" d="M120,90.7V98a9.38,9.38,0,0,1-2.39,1,11.11,11.11,0,0,1-2.8.35,10.22,10.22,0,0,1-3.89-.71,8.74,8.74,0,0,1-3-1.94,8.63,8.63,0,0,1-1.89-2.9,9.74,9.74,0,0,1,2.15-10.49,9.36,9.36,0,0,1,3-2,9.47,9.47,0,0,1,3.66-.72,11.06,11.06,0,0,1,2.66.33,8.51,8.51,0,0,1,2.4,1l-.87,1.44a7.41,7.41,0,0,0-2-.81,8.88,8.88,0,0,0-2.22-.3,7.29,7.29,0,0,0-3,.62,8.15,8.15,0,0,0-2.47,1.67A7.77,7.77,0,0,0,107.77,87a7.68,7.68,0,0,0-.62,3.06A7.84,7.84,0,0,0,107.7,93a7.41,7.41,0,0,0,1.55,2.43A7.27,7.27,0,0,0,111.67,97a7.9,7.9,0,0,0,3.14.6,8.9,8.9,0,0,0,1.79-.19,8.39,8.39,0,0,0,1.79-.58V92.24h-4V90.7Z"/><path class="cls-2" d="M66.54,93.76c-3.53,2.61-5.15,2.61-8.61,0a12,12,0,0,1-2.34,4c-3.12,3.38-6.9,4.57-11.18,3.34a11,11,0,0,1-8-8.78,12,12,0,0,1,3.74-12c1.11-1,2.1-2.2,3.14-3.3,1.39-1.48,2.72-3,4.18-4.44a6.67,6.67,0,0,1,7.83-1.46c1.2.52,2.35,1.2,3.58,1.63A10.79,10.79,0,0,0,67,72.22c.85-.37,1.68-.79,2.52-1.18,2.46-1.13,4.71-.57,6.81,1a9,9,0,0,1,1.09,1c2.54,2.65,5.1,5.28,7.58,8a12,12,0,0,1,2.86,12.11,11,11,0,0,1-21,1.29ZM47.35,99a9.11,9.11,0,0,0,8.89-9.32c0-5.17-4-9.43-8.81-9.43A9.39,9.39,0,0,0,47.35,99ZM77.09,80.18a9.1,9.1,0,0,0-8.86,9.34c0,5.21,4,9.45,8.84,9.46a9.41,9.41,0,0,0,0-18.79Zm-17.5,9.34a2.77,2.77,0,0,0,2.63,2.87,2.82,2.82,0,1,0-2.63-2.87Z"/><path class="cls-2" d="M65.36,71.95a4.49,4.49,0,0,1,8.56-2.07l-1.2-.14a8,8,0,0,0-4.27.85C67.45,71.06,66.43,71.48,65.36,71.95Z"/><path class="cls-2" d="M50.54,69.88a4.48,4.48,0,0,1,5.11-2.47,4.4,4.4,0,0,1,3.45,4.42l-1-.41c-1.16-.48-2.3-1-3.48-1.44a7.49,7.49,0,0,0-3.46-.17Z"/><path class="cls-1" d="M58.87,89.71a3.42,3.42,0,1,1,3.39,3.49A3.43,3.43,0,0,1,58.87,89.71Z"/><path class="cls-4" d="M68.23,89.29a9.23,9.23,0,0,1,9-9.28c4.92,0,8.88,4.36,8.84,9.65a9.2,9.2,0,0,1-9,9.3C72.18,98.92,68.18,94.55,68.23,89.29Z"/></g></g></svg>