<svg xmlns="http://www.w3.org/2000/svg" viewBox="0 0 50.78 41.06"><defs><style>.cls-1{fill:#00a99d;}</style></defs><title>espace_pro_bleu</title><g id="Calque_2" data-name="Calque 2"><g id="Calque_1-2" data-name="Calque 1"><path class="cls-1" d="M50.78,6.09V35c0,.16-.09.31-.12.47a6.72,6.72,0,0,1-1.38,3,6.83,6.83,0,0,1-5.56,2.59H10.1c-1.16,0-2.33,0-3.49,0A6.84,6.84,0,0,1,.26,36L0,35V6.09c0-.16.09-.31.12-.47a6.76,6.76,0,0,1,1.39-3A6.92,6.92,0,0,1,7.15,0H44.2a6.86,6.86,0,0,1,6.32,5.06ZM25.36,37.82H43.69A3.66,3.66,0,0,0,47.54,34q0-13.48,0-27a4.18,4.18,0,0,0-.37-1.72,3.54,3.54,0,0,0-3.47-2.08H7.07A3.66,3.66,0,0,0,3.24,7.07q0,13.44,0,26.89a3.83,3.83,0,0,0,.69,2.33,3.69,3.69,0,0,0,3.18,1.54Z"/><path class="cls-1" d="M25.16,15.47c.74.11.84.22,1,.94a3.79,3.79,0,0,1-.69,3,.94.94,0,0,1-1,.47c-.39.62-.77,1.24-1.17,1.85a4.4,4.4,0,0,1-.6.71,1.09,1.09,0,0,0,.75,1.8c.59,0,1.19,0,1.78.07a4.73,4.73,0,0,1,4.32,4.56c0,.51,0,1,0,1.54a1.43,1.43,0,0,1-1.44,1.45c-.3,0-.59,0-.89,0H12.32a1.57,1.57,0,0,1-1.45-.63,1.11,1.11,0,0,1-.22-.47A6.85,6.85,0,0,1,11,27.13a4.76,4.76,0,0,1,4.49-2.85h1.05a1.18,1.18,0,0,0,1.12-.74c.21-.48,0-.83-.31-1.21-.51-.67-1-1.39-1.43-2.1a.55.55,0,0,0-.43-.32,1.33,1.33,0,0,1-.75-.49,3.89,3.89,0,0,1-.61-3.35.69.69,0,0,1,.83-.57,12.1,12.1,0,0,1,.14-1.63,13.72,13.72,0,0,1,.71-2.47,3.49,3.49,0,0,1,2.5-2,6.1,6.1,0,0,1,4.2.29,4,4,0,0,1,2,2.19,8.75,8.75,0,0,1,.61,2.92C25.12,15,25.14,15.25,25.16,15.47Z"/><path class="cls-1" d="M25.16,22.48a5.93,5.93,0,0,1,0-.91.6.6,0,0,1,.29-.39,3.57,3.57,0,0,0,1.74-2.09c.23-.6.21-.6.85-.6h10.7a2.39,2.39,0,0,1,.72.08.91.91,0,0,1,.7.85c0,.67,0,1.35,0,2a1,1,0,0,1-1,1,2.7,2.7,0,0,1-.4,0H25.16Z"/><path class="cls-1" d="M25.8,11.18l.4,0H38.72a4,4,0,0,1,.52,0,1,1,0,0,1,.91.89,15.5,15.5,0,0,1,0,2A1.09,1.09,0,0,1,39,15.17H27.45a.76.76,0,0,1-.42-.22,2.36,2.36,0,0,1-.69-1.57C26.22,12.66,26,11.95,25.8,11.18Z"/><path class="cls-1" d="M30,25.8h8.82c1,0,1.39.38,1.39,1.4,0,.53,0,1.06,0,1.58a1,1,0,0,1-.92,1,2.08,2.08,0,0,1-.4,0h-7.5l-.37,0A7.28,7.28,0,0,0,30,25.8Z"/></g></g></svg>