<svg xmlns="http://www.w3.org/2000/svg" viewBox="0 0 50 40"><defs><style>.cls-1{fill:#8CC63F;}</style></defs><title>icone newsletter</title><g id="Calque_2" data-name="Calque 2"><g id="Calque_1-2" data-name="Calque 1"><path class="cls-1" d="M.08,0H43.71V6.07h6.23c0,.41,0,.72,0,1,0,8.82,0,17.64,0,26.45a10.15,10.15,0,0,1-.86,4A4.22,4.22,0,0,1,45,40Q25.63,40,6.26,40C2.57,40,0,37.64,0,34,0,22.79,0,11.57,0,.35A2.25,2.25,0,0,1,.08,0ZM3.13,3.06V4.18q0,14.48,0,29c0,2.78,1,3.77,3.81,3.77H41.66c-1.1-1.36-1-2.8-1-4.25q0-14.24,0-28.49V3.06Z"/><path class="cls-1" d="M6.3,30.69V15.41H20.24V30.69Z"/><path class="cls-1" d="M37.45,9.27v3H6.3v-3Z"/><path class="cls-1" d="M23.48,18.37v-3H37.42v3Z"/><path class="cls-1" d="M23.48,24.53v-3h14v3Z"/><path class="cls-1" d="M34.33,27.74v3H23.52v-3Z"/></g></g></svg>