<svg xmlns="http://www.w3.org/2000/svg" viewBox="0 0 44.78 35.82"><defs><style>.cls-1{fill:#00a99d;}</style></defs><title>icone newsletter bleu pros</title><g id="Calque_2" data-name="Calque 2"><g id="Calque_1-2" data-name="Calque 1"><path class="cls-1" d="M.07,0H39.15V5.44h5.58c0,.37,0,.64,0,.92,0,7.9,0,15.8,0,23.69A9.09,9.09,0,0,1,44,33.61a3.78,3.78,0,0,1-3.66,2.21q-17.35,0-34.69,0C2.3,35.81,0,33.71,0,30.46,0,20.41,0,10.36,0,.31A2,2,0,0,1,.07,0ZM2.8,2.74v1q0,13,0,25.95c0,2.49.89,3.38,3.41,3.38h31.1a5.41,5.41,0,0,1-.94-3.8q0-12.76,0-25.51v-1Z"/><path class="cls-1" d="M5.64,27.49V13.8H18.12V27.49Z"/><path class="cls-1" d="M33.54,8.3V11H5.64V8.3Z"/><path class="cls-1" d="M21,16.45V13.8H33.51v2.65Z"/><path class="cls-1" d="M21,22V19.32H33.54V22Z"/><path class="cls-1" d="M30.74,24.85V27.5H21.06V24.85Z"/></g></g></svg>