<svg xmlns="http://www.w3.org/2000/svg" viewBox="0 0 40 40"><defs><style>.cls-1{fill:#FFFFFF;}</style></defs><title>icone pouce inversé gris</title><g id="Calque_2" data-name="Calque 2"><g id="Calque_1-2" data-name="Calque 1"><path class="cls-1" d="M28.21,26.69c2.23,0,4.33,0,6.43,0A4.82,4.82,0,0,0,39.37,24,5.4,5.4,0,0,0,39,18.36a1.38,1.38,0,0,1-.2-1.18,5.81,5.81,0,0,0-.59-4.45,1.48,1.48,0,0,1-.18-.9A6,6,0,0,0,36.83,7.1a1.44,1.44,0,0,1-.26-.78c0-3.91-2.1-6-5.88-6.26a32.75,32.75,0,0,0-14,2.46,26.35,26.35,0,0,1-3.31.91A1.65,1.65,0,0,0,12,5.16q0,8.21,0,16.41a1.8,1.8,0,0,0,1.15,1.74,6.19,6.19,0,0,1,2,1.33c1.9,2.22,3.75,4.5,5.55,6.81,1,1.33,1.1,3.05,1.52,4.64a17,17,0,0,0,1.2,3A1.65,1.65,0,0,0,25,40c3.14,0,4.93-1.74,5.27-5a11.43,11.43,0,0,0-1.45-6.93C28.62,27.68,28.46,27.23,28.21,26.69Z"/><path class="cls-1" d="M10.38,21.44c0,1.27-.6,1.91-1.82,1.92q-3.36,0-6.71,0c-1.25,0-1.85-.65-1.85-2q0-8,0-16c0-1.36.57-2,1.9-2q3.28,0,6.55,0c1.38,0,1.93.63,1.93,2.06q0,4,0,8C10.38,16.08,10.39,18.76,10.38,21.44ZM3.21,8.34A1.62,1.62,0,0,0,4.74,10,1.65,1.65,0,0,0,6.4,8.38,1.67,1.67,0,0,0,4.81,6.72,1.62,1.62,0,0,0,3.21,8.34Z"/></g></g></svg>