<svg xmlns="http://www.w3.org/2000/svg" viewBox="0 0 86 86"><defs><style>.cls-1{fill:#00a99d;}</style></defs><title>icone agenda pro bleu</title><g id="Calque_2" data-name="Calque 2"><g id="Calque_1-2" data-name="Calque 1"><path class="cls-1" d="M0,15.8a18.75,18.75,0,0,1,1.26-2.7,5.17,5.17,0,0,1,4.18-2.28c.82-.05,1.64,0,2.59,0,0,.42,0,.82,0,1.22a7.75,7.75,0,0,0,.78,4.12,5.35,5.35,0,0,0,9.94-2.06c.1-1.06,0-2.15,0-3.27H51c0,.66,0,1.31,0,2a6.76,6.76,0,0,0,.78,3.37,5.35,5.35,0,0,0,10-2.14c.09-1,0-2.1,0-3.14,3.32-.4,5.92.17,7.43,3.17a6,6,0,0,1,.6,2.57c0,6.84,0,13.69,0,20.54a4,4,0,0,1-.05.44H64.57V26.9H5.36v.78q0,17.79,0,35.58c0,1.2.09,1.3,1.28,1.29H37.58v5.29H6.35C3,69.83,1,68.34.11,65.09A1.6,1.6,0,0,0,0,64.84Q0,40.32,0,15.8Z"/><path class="cls-1" d="M62.78,86c-1.28-.25-2.57-.42-3.83-.76a20.55,20.55,0,0,1-10.52-6.51,20.93,20.93,0,0,1-5.07-17.92,21.47,21.47,0,0,1,23.21-17.7,21,21,0,0,1,14.77,8,21.35,21.35,0,0,1,4.53,11c0,.22.09.44.13.66v3.43c0,.22-.1.44-.13.66a21.52,21.52,0,0,1-5.31,11.88A21,21,0,0,1,70,85.24c-1.25.33-2.55.51-3.82.76ZM80.63,64.51A16.13,16.13,0,1,0,64.49,80.63,16.18,16.18,0,0,0,80.63,64.51Z"/><path class="cls-1" d="M14,0a3.06,3.06,0,0,1,2.09,3.36c-.07,3.34,0,6.68,0,10a2.66,2.66,0,1,1-5.31-.07c0-2.36,0-4.71,0-7.07,0-.89.06-1.79,0-2.68a3.18,3.18,0,0,1,2-3.56Z"/><path class="cls-1" d="M57.15,0c.17.11.33.22.51.31a2.47,2.47,0,0,1,1.42,2.26c0,3.66,0,7.33,0,11a2.48,2.48,0,0,1-2.55,2.51,2.53,2.53,0,0,1-2.72-2.42c-.07-1.3,0-2.61,0-3.91,0-2.06.06-4.12,0-6.18a3.25,3.25,0,0,1,2-3.57Z"/><path class="cls-1" d="M21.4,43H10.82V32.33H21.4Z"/><path class="cls-1" d="M27,32.31H37.58V42.94H27Z"/><path class="cls-1" d="M53.67,43H43V32.33H53.67Z"/><path class="cls-1" d="M27,48.41H37.57V59H27Z"/><path class="cls-1" d="M21.42,59.06H10.82V48.42h10.6Z"/><path class="cls-1" d="M59.18,61.76c0-1.85,0-3.71,0-5.56a2.51,2.51,0,0,1,2.37-2.41,2.59,2.59,0,0,1,2.82,2,4.83,4.83,0,0,1,.07,1c0,2.36,0,4.71,0,7.07,0,.55.16.69.7.69q3.77,0,7.55,0a2.52,2.52,0,0,1,2.51,2.27,2.6,2.6,0,0,1-1.81,2.88,3.41,3.41,0,0,1-.95.12c-3.5,0-7,0-10.5,0A2.55,2.55,0,0,1,59.17,67c0-1.76,0-3.52,0-5.28Z"/></g></g></svg>