<svg xmlns="http://www.w3.org/2000/svg" viewBox="0 0 40 40"><defs><style>.cls-1{fill:#939498;}</style></defs><title>icone enveloppe-contact</title><g id="Calque_2" data-name="Calque 2"><g id="Calque_1-2" data-name="Calque 1"><path class="cls-1" d="M0,14c0,.46,0,.77,0,1.08q0,10.25,0,20.5C0,38.35,1.46,40,3.93,40H36.08C38.55,40,40,38.34,40,35.55Q40,25.3,40,15c0-.33,0-.65,0-1.05l-.71.48Q30.37,20.71,21.51,27a2.32,2.32,0,0,1-3,0C12.9,23,7.29,19.06,1.69,15.13Zm.31-.28h39.2a3,3,0,0,0-.23-.22Q29.85,6.81,20.38.14C20-.12,19.8,0,19.52.23L9.74,7.1Z"/><path class="cls-1" d="M0,14l1.65,1.15C7.29,19.06,12.9,23,18.49,26.95a2.32,2.32,0,0,0,3,0q8.85-6.27,17.73-12.49l.71-.48c0,.4,0,.73,0,1.05q0,10.25,0,20.5c0,2.8-1.45,4.44-3.92,4.45H3.93C1.46,40,0,38.35,0,35.56q0-10.25,0-20.5C0,14.74,0,14.43,0,14Z"/><path class="cls-1" d="M.36,13.69,9.74,7.1,19.52.23c.28-.2.49-.35.86-.08q9.46,6.69,18.95,13.33a3,3,0,0,1,.23.22Z"/></g></g></svg>