<svg xmlns="http://www.w3.org/2000/svg" viewBox="0 0 27.93 40"><defs><style>.cls-1{fill:#00a99d;}</style></defs><title>icone carte pro</title><g id="Calque_2" data-name="Calque 2"><g id="Calque_1-2" data-name="Calque 1"><path class="cls-1" d="M13.81,29.34A49.18,49.18,0,0,1,7.46,23,25.39,25.39,0,0,1,3,15.54,11.37,11.37,0,0,1,8.79,1.14c7-3.4,15.61,1.21,16.48,8.81a13.89,13.89,0,0,1-2,8.51A41.42,41.42,0,0,1,13.81,29.34ZM7.88,10.12a6,6,0,0,0,12.09.2,6,6,0,0,0-6-6A6,6,0,0,0,7.88,10.12Z"/><path class="cls-1" d="M10.15,31.28c-1.77.46-3.5.85-5.19,1.37a6.83,6.83,0,0,0-2,1.08c-.56.41-.56.86,0,1.22a11.41,11.41,0,0,0,2.79,1.38,29.61,29.61,0,0,0,16.29,0,10.66,10.66,0,0,0,2.68-1.28c.73-.45.72-1,0-1.46a14.6,14.6,0,0,0-3-1.35c-1.23-.37-2.53-.52-3.8-.76l-.53-.13c.78-.73,1.48-1.38,2.2-2a.62.62,0,0,1,.46-.11,15.5,15.5,0,0,1,6,2.17c2.55,1.77,2.5,4.27-.1,6a14.63,14.63,0,0,1-5.39,2A34,34,0,0,1,6.7,39.22,13.34,13.34,0,0,1,1.9,37.34c-1.63-1.12-2.27-2.66-1.68-4A4.9,4.9,0,0,1,2.45,31a16,16,0,0,1,5.1-1.72.66.66,0,0,1,.47,0C8.77,30,9.48,30.66,10.15,31.28Z"/></g></g></svg>