<svg xmlns="http://www.w3.org/2000/svg" viewBox="0 0 38.74 41.26"><defs><style>.cls-1{fill:#8CC63F;}</style></defs><title>icone mentions bleu pros</title><g id="Calque_2" data-name="Calque 2"><g id="Calque_1-2" data-name="Calque 1"><path class="cls-1" d="M0,22.66C0,17.85,0,13,0,8.23a4,4,0,0,1,3.31-4A7.32,7.32,0,0,1,5,4H28C31.17,4,33,5.65,33,8.43q0,14.23,0,28.46c0,2.74-1.83,4.36-4.92,4.37H4.91C1.82,41.26,0,39.64,0,36.89Q0,29.77,0,22.66Zm5.08-9H27.91v-2.2H5.08Zm22.84,2.82H5.09v2.18H27.92ZM5.07,28.68H27.9V26.5H5.07Zm0-5H27.92V21.49H5.08ZM5.08,34H27.91V31.8H5.08Z"/><path class="cls-1" d="M35.56,37.05v-.83q0-13.43,0-26.87a6.14,6.14,0,0,0-4-5.88,8.2,8.2,0,0,0-3.48-.64H5.93a6.07,6.07,0,0,1,.33-.73A4.74,4.74,0,0,1,10.62,0Q22.2,0,33.78,0c.26,0,.53,0,.79,0a4.19,4.19,0,0,1,4.13,3.6,6.08,6.08,0,0,1,0,.7q0,14.29,0,28.59a4,4,0,0,1-2.37,3.81C36.15,36.85,35.9,36.92,35.56,37.05Z"/></g></g></svg>