<svg xmlns="http://www.w3.org/2000/svg" viewBox="0 0 40.84 39.25"><defs><style>.cls-1{fill:#00A99D;}</style></defs><title>icone importer user</title><g id="Calque_2" data-name="Calque 2"><g id="Calque_1-2" data-name="Calque 1"><path class="cls-1" d="M20.4,39.25H2.78C.85,39.25,0,38.41,0,36.49q0-3.59,0-7.18a2.37,2.37,0,0,1,2.61-2.63c3.22,0,6.43,0,9.65,0a1.07,1.07,0,0,1,.78.46,4.83,4.83,0,0,0,4.61,2.69c1.91,0,3.83,0,5.74,0a4.62,4.62,0,0,0,4.33-2.6,1,1,0,0,1,1-.58c3.14,0,6.27,0,9.41,0,1.84,0,2.73.91,2.73,2.76q0,3.59,0,7.18a2.35,2.35,0,0,1-2.66,2.64Zm11-4.69a1.57,1.57,0,0,0-3.15,0,1.57,1.57,0,0,0,3.15,0Zm3.17-.07a1.55,1.55,0,1,0,3.09.09,1.55,1.55,0,0,0-3.09-.09Z"/><path class="cls-1" d="M25.11,12.55c2.07,0,4,0,5.94,0a2.47,2.47,0,0,1,1.39.42c.78.61.71,1.55-.08,2.36-1.77,1.8-3.57,3.58-5.35,5.36L21.83,25.9c-1,1-1.83,1-2.87,0L8.54,15.47a1.63,1.63,0,0,1-.6-1.9,1.66,1.66,0,0,1,1.79-1c1.94,0,3.87,0,5.95,0,0-.37,0-.67,0-1q0-4.74,0-9.49C15.68.47,16.16,0,17.77,0h5.5c1.28,0,1.84.53,1.84,1.84,0,3.22,0,6.43,0,9.65C25.11,11.8,25.11,12.12,25.11,12.55Z"/></g></g></svg>