<svg xmlns="http://www.w3.org/2000/svg" viewBox="0 0 33.88 29.21"><defs><style>.cls-1{fill:#FAFAFA;}.cls-2{fill:#FAFAFA;}.cls-3{fill:#FAFAFA;}.cls-4{fill:#FAFAFA;}.cls-5{fill:#645f5f;}.cls-6{fill:#FAFAFA;}.cls-7{fill:#FAFAFA;}.cls-8{fill:#FAFAFA;}.cls-9{fill:#FAFAFA;}.cls-10{fill:#FAFAFA;}</style></defs><title>icone case cochee pro bleu</title><g id="Calque_2" data-name="Calque 2"><g id="Calque_1-2" data-name="Calque 1"><path class="cls-1" d="M25.06,12.51c.44-.49.86-1,1.34-1.46.83-.81,1.7-1.6,2.56-2.39a1.36,1.36,0,0,1,.2-.13q0,8.35,0,16.7a2.05,2.05,0,0,0,.06.34,4,4,0,0,1-3.73,3.62,4,4,0,0,0-.45,0H4.19a4,4,0,0,0-.45,0A4,4,0,0,1,0,25.69a3,3,0,0,0,.05-.41q0-9.26,0-18.52A2.82,2.82,0,0,0,0,6.36a3.94,3.94,0,0,1,3.52-3.5h.27c.28,0,.56-.07.84-.07H23.72A1.45,1.45,0,0,1,23.6,3L19.9,6.42l-.16.13H4.67a2.55,2.55,0,0,0-.38.05H4.24a2.59,2.59,0,0,0-.08.46q0,5.31,0,10.62,0,3.85,0,7.7a3.08,3.08,0,0,0,.44.06h20a3.11,3.11,0,0,0,.44-.06Z"/><path class="cls-2" d="M14.68,16.17c1-1.43,2-2.85,3-4.21A45.28,45.28,0,0,1,30.34.48,2.44,2.44,0,0,1,32.41.1a1.88,1.88,0,0,1,1.44,1.53,1.73,1.73,0,0,1-.92,1.86A38.35,38.35,0,0,0,26,8.73,45.41,45.41,0,0,0,17.1,20.35a2.23,2.23,0,0,1-3.79.47l-2-2.32c-1.43-1.69-2.87-3.38-4.29-5.07a1.83,1.83,0,0,1,1.18-3,2,2,0,0,1,2.07.64c1.39,1.61,2.76,3.24,4.13,4.86Z"/><path class="cls-3" d="M3.74,29.19a4,4,0,0,1,.45,0H25a4,4,0,0,1,.45,0H3.74Z"/><path class="cls-4" d="M0,6.36a2.82,2.82,0,0,1,.06.4q0,9.26,0,18.52a3,3,0,0,1-.05.41c0-.12,0-.23,0-.35Q0,16,0,6.68C0,6.57,0,6.47,0,6.36Z"/><path class="cls-5" d="M25.06,25.38a3.11,3.11,0,0,1-.44.06H4.6a3.09,3.09,0,0,1-.44-.06h20.9Z"/><path class="cls-6" d="M4.23,25.38H4.16q0-3.85,0-7.7,0-5.31,0-10.62a2.59,2.59,0,0,1,.08-.46c0,.08,0,.17,0,.25q0,9.17,0,18.33C4.22,25.26,4.23,25.32,4.23,25.38Z"/><path class="cls-7" d="M29.21,25.57a2.05,2.05,0,0,1-.06-.34q0-8.35,0-16.7a1.14,1.14,0,0,1,.06.26q0,8.33,0,16.65S29.21,25.53,29.21,25.57Z"/><path class="cls-8" d="M4.3,6.6a2.55,2.55,0,0,1,.38-.05H19.74a1.25,1.25,0,0,1-.26.06Z"/><path class="cls-9" d="M25.06,25.38H25q0-6.24,0-12.48a2.43,2.43,0,0,1,.06-.4Z"/><path class="cls-10" d="M3.79,2.86h0Z"/></g></g></svg>