<svg xmlns="http://www.w3.org/2000/svg" viewBox="0 0 40 40"><defs><style>.cls-1{fill:#00a99d;}</style></defs><title>icone mon compte pro</title><g id="Calque_2" data-name="Calque 2"><g id="Calque_1-2" data-name="Calque 1"><path class="cls-1" d="M14.22,20.6c-.45.28-1.06.47-1.17.79s.21.83.35,1.25l4.44,12.93a1,1,0,0,0,.34.48,4.32,4.32,0,0,0,.1-.53q.25-3.82.48-7.64c0-.14,0-.28,0-.42.06-.82.35-1.07,1.19-1.07s1.17.26,1.23,1.1q.31,4.2.63,8.41l.25,0,5.06-14.61-1.39-.63.59-1.38C34.2,20.74,38.74,24.94,40,30.78a1.54,1.54,0,0,1-.48,1.49A26,26,0,0,1,19.72,40,28,28,0,0,1,.77,32.59a2,2,0,0,1-.68-2.18,13.08,13.08,0,0,1,7.37-9c1.8-.84,3.77-1.38,5.67-2a.46.46,0,0,1,.67.29C13.92,19.95,14.08,20.28,14.22,20.6Zm18.6,12.22-7.11.79a3.54,3.54,0,0,0-.66.21l0,.29a6.93,6.93,0,0,0,1.52.2c1.65-.15,3.29-.39,4.94-.57A1.37,1.37,0,0,0,32.82,32.83Z"/><path class="cls-1" d="M29.45,7.36c-.63,0-.54.36-.5.72a27.17,27.17,0,0,1,.2,3.55,3.52,3.52,0,0,1-.7,1.66,39.42,39.42,0,0,1-3.63,5.11,6.85,6.85,0,0,1-9.71.21c-2.07-2-3.87-4.32-4.19-7.17a14.38,14.38,0,0,1,.57-6.57A7,7,0,0,1,17.62.21a12.38,12.38,0,0,1,6.94.63,7.11,7.11,0,0,1,4,4C28.86,5.63,29.13,6.45,29.45,7.36ZM16.9,7.29c-.7.54-1.26,1-1.8,1.41-1.9,1.59-1.68,1-1.25,3.2a9.55,9.55,0,0,0,3,5.59,4.44,4.44,0,0,0,6.22,0,9.36,9.36,0,0,0,3-9.23,6.13,6.13,0,0,0-1.78-3.16l-.73,2.13-.7-1a13,13,0,0,1-6.44,3Z"/><path class="cls-1" d="M20,22.89c1.45,0,1.93.29,2,1.28,0,0,0,.08,0,.12,0,.6-.48,1.07-1.3,1.28a2.71,2.71,0,0,1-2.65-.67,1.25,1.25,0,0,1,.24-1.65A6.48,6.48,0,0,1,20,22.73Z"/></g></g></svg>