<svg xmlns="http://www.w3.org/2000/svg" viewBox="0 0 51.97 50"><defs><style>.cls-1{fill:#00a99d;}</style></defs><title>menu burger pro bleu</title><g id="Calque_2" data-name="Calque 2"><g id="Calque_1-2" data-name="Calque 1"><path class="cls-1" d="M26.09,19.55H49.42c2,0,2.54.5,2.54,2.49s0,4.13,0,6.19c0,1.59-.61,2.21-2.21,2.21H2.58C.47,30.45,0,30,0,27.91s0-4.19,0-6.29a1.79,1.79,0,0,1,2-2.06c2.84,0,5.68,0,8.52,0Z"/><path class="cls-1" d="M26,50H2.35C.5,50,0,49.51,0,47.67q0-3,0-6c0-2.06.44-2.51,2.48-2.51H49.75c1.64,0,2.21.57,2.21,2.18q0,3.25,0,6.49C52,49.4,51.38,50,49.83,50Z"/><path class="cls-1" d="M26,0H49.52c2,0,2.44.49,2.44,2.46s0,3.92,0,5.88-.56,2.48-2.46,2.48H2.43C.57,10.82,0,10.26,0,8.43Q0,5.29,0,2.14C0,.59.58,0,2.14,0Z"/></g></g></svg>