<svg xmlns="http://www.w3.org/2000/svg" viewBox="0 0 107.81 27.03"><defs><style>.cls-1{fill:#333;}.cls-2{font-size:8.25px;font-family:OpenSans-Regular, Open Sans;}.cls-2,.cls-3{fill:#fff;}</style></defs><title>bouton vue detaillee</title><g id="Calque_2" data-name="Calque 2"><g id="Calque_1-2" data-name="Calque 1"><rect class="cls-1" width="107.81" height="27.03" rx="13.52" ry="13.52"/><text class="cls-2" transform="translate(42.01 11.45) scale(1.12 1)">VUE <tspan x="0" y="9.9">DETAILLEE</tspan></text><path class="cls-3" d="M12.17,9h4.71c0,.12,0,.23,0,.34q0,2.74,0,5.48c0,.61-.21.83-.82.85h-.53c0,.16,0,.29,0,.41q0,2.61,0,5.23a2.57,2.57,0,0,1,0,.41.33.33,0,0,1-.36.32H10.73a.51.51,0,0,1-.51-.53c0-1.39-.06-2.78,0-4.16a13,13,0,0,1,.48-2.16L12.1,9.22C12.12,9.15,12.14,9.08,12.17,9Z"/><path class="cls-3" d="M19.55,9h4.7l.65,2.8q.62,2.64,1.24,5.29a2,2,0,0,1,.05.43q0,1.88,0,3.75c0,.59-.16.75-.73.75h-4c-.49,0-.56-.06-.56-.55,0-1.56,0-3.13,0-4.69,0-.29,0-.58,0-.88s-.06-.25-.24-.23h-.31a.73.73,0,0,1-.8-.83q0-2.77,0-5.54C19.54,9.19,19.55,9.1,19.55,9Z"/><path class="cls-3" d="M22.83,6v2.3H19.55V6Z"/><path class="cls-3" d="M18.83,14.61H17.59V9h1.24Z"/><path class="cls-3" d="M13.9,8.31V6h3c0,.72,0,1.43,0,2.15a.23.23,0,0,1-.16.16Z"/></g></g></svg>