<svg xmlns="http://www.w3.org/2000/svg" viewBox="0 0 234.61 58.65"><defs><style>.cls-1{fill:#262626;}.cls-2{font-size:14.08px;fill:#f2f2f2;font-family:OpenSans-Regular, Open Sans;}.cls-3{fill:#8cc63f;}</style></defs><title>bouton rechercher</title><g id="Calque_2" data-name="Calque 2"><g id="Calque_1-2" data-name="Calque 1"><rect class="cls-1" width="234.61" height="58.65" rx="24.14" ry="24.14"/><text class="cls-2" transform="translate(94.61 33.38) scale(0.92 1)">RECHERCHER</text><path class="cls-3" d="M58.29,42.69a9.33,9.33,0,0,1-5.57,1.51,9.17,9.17,0,1,1,9.47-11.05,8.71,8.71,0,0,1-.73,5.91.7.7,0,0,0,.18,1C63.11,41.49,64.56,43,66,44.42a2.16,2.16,0,0,1,.72,2,2,2,0,0,1-1.43,1.61,2.1,2.1,0,0,1-2.2-.56L59,43.4Zm-5.07-.53A7.12,7.12,0,1,0,46.1,35,7.11,7.11,0,0,0,53.22,42.17Z"/><path class="cls-3" d="M22.66,41.33c0-8.28,0-16.17,0-24.06a2.34,2.34,0,0,1,1-1.77c3.13-1.58,6.33-3,9.75-4.6.05.56.11.89.11,1.23,0,7.44,0,14.87,0,22.3a2.25,2.25,0,0,1-1.51,2.44C29,38.25,26,39.73,22.66,41.33Z"/><path class="cls-3" d="M45.73,15.88c0,3.45,0,6.74,0,10a2.27,2.27,0,0,1-.45,1.44c-3.25,3.37-4.13,7.36-3.08,12.2-2.34-1.13-4.41-2-6.38-3.13a2.27,2.27,0,0,1-.68-1.72c0-7.8,0-15.6,0-23.81Z"/><path class="cls-3" d="M47.47,25.59V15.87L58,11V24.64A13.24,13.24,0,0,0,47.47,25.59Z"/></g></g></svg>