<svg xmlns="http://www.w3.org/2000/svg" viewBox="0 0 234.61 58.65"><defs><style>.cls-1{fill:#8cc63f;}.cls-2{font-size:14.08px;fill:#333;font-family:OpenSans-Regular, Open Sans;}.cls-3{fill:#fff;}</style></defs><title>bouton envoyer</title><g id="Calque_2" data-name="Calque 2"><g id="Calque_1-2" data-name="Calque 1"><rect class="cls-1" width="234.61" height="58.65" rx="24.14" ry="24.14"/><text class="cls-2" transform="translate(120.61 33.38) scale(0.92 1)">ENVOYER</text><path class="cls-3" d="M56.51,38.53c0-1.65,0-3.26,0-4.87a1.14,1.14,0,0,1,.22-.78c1.71-1.41,3.44-2.78,5.32-4.27,0,1,0,1.89,0,2.75,0,2.37,0,4.74,0,7.11a5.53,5.53,0,0,1-5.71,5.66H28.87a5.48,5.48,0,0,1-5.65-5.62q0-9.62,0-19.24a5.31,5.31,0,0,1,5-5.58c4.46-.18,8.93,0,13.62,0L40,15.13c-1.49,1.19-3,2.4-4.48,3.56a2.27,2.27,0,0,1-1.23.44c-1.81,0-3.63,0-5.5,0V38.53Z"/><path class="cls-3" d="M34.32,33C34,24.37,41.88,14,53.69,13.51V8L67.61,19.15,53.78,30.21V24.75a22.54,22.54,0,0,0-10.57,1.88A30.76,30.76,0,0,0,34.32,33Z"/></g></g></svg>