<svg xmlns="http://www.w3.org/2000/svg" viewBox="0 0 163 27.03"><defs><style>.cls-1{fill:#8cc63f;}.cls-2{font-size:11px;fill:#262626;font-family:OpenSans-Regular, Open Sans;}.cls-3{fill:none;stroke:#c1272d;stroke-miterlimit:10;}</style></defs><title>bouton retirer signalement</title><g id="Calque_2" data-name="Calque 2"><g id="Calque_1-2" data-name="Calque 1"><rect class="cls-1" width="163" height="27.03" rx="13.52" ry="13.52"/><text class="cls-2" transform="translate(35.87 17.25)">RETIRER SIGNALEMENT</text><path class="cls-3" d="M20.67,16.37c.82,0,1.59,0,2.36,0a1.77,1.77,0,0,0,1.74-1,2,2,0,0,0-.15-2.08.51.51,0,0,1-.07-.44,2.13,2.13,0,0,0-.22-1.64.54.54,0,0,1-.06-.33,2.19,2.19,0,0,0-.43-1.73.53.53,0,0,1-.1-.29,2.09,2.09,0,0,0-2.16-2.3,12,12,0,0,0-5.13.9,9.68,9.68,0,0,1-1.21.33.61.61,0,0,0-.52.64q0,3,0,6a.66.66,0,0,0,.42.64,2.27,2.27,0,0,1,.72.49c.7.81,1.38,1.65,2,2.5a4.4,4.4,0,0,1,.56,1.7,6.25,6.25,0,0,0,.44,1.12.61.61,0,0,0,.61.31,1.81,1.81,0,0,0,1.93-1.83,4.2,4.2,0,0,0-.53-2.54C20.82,16.73,20.76,16.57,20.67,16.37Z"/><path class="cls-3" d="M14.12,14.44c0,.46-.22.7-.67.7H11c-.46,0-.68-.24-.68-.72q0-2.94,0-5.88c0-.5.21-.73.7-.74q1.2,0,2.41,0c.51,0,.71.23.71.76q0,1.46,0,2.92C14.12,12.47,14.13,13.45,14.12,14.44ZM11.49,9.63a.59.59,0,0,0,.56.62.61.61,0,0,0,.61-.61A.61.61,0,0,0,12.08,9,.59.59,0,0,0,11.49,9.63Z"/></g></g></svg>