<svg xmlns="http://www.w3.org/2000/svg" viewBox="0 0 233.08 58.27"><defs><style>.cls-1{fill:#262626;}.cls-2{font-size:13.98px;fill:#f2f2f2;font-family:OpenSans-Regular, Open Sans;}.cls-3{fill:#8cc63f;}</style></defs><title>bouton connexion</title><g id="Calque_2" data-name="Calque 2"><g id="Calque_1-2" data-name="Calque 1"><rect class="cls-1" width="233.08" height="58.27" rx="24.14" ry="24.14"/><text class="cls-2" transform="translate(108.96 25.13) scale(0.95 1)">CONNEXION<tspan x="-1.49" y="16.78">INSCRIPTION</tspan></text><path class="cls-3" d="M36.28,28c0-2.4-.06-4.75,0-7.1a11.48,11.48,0,0,1,.57-3.61,10.89,10.89,0,0,1,9-7.16,11.91,11.91,0,0,1,11.78,4.36,9.38,9.38,0,0,1,2.1,5.81c0,1.05-.64,1.67-1.81,1.68H56.52c-1.11,0-1.7-.48-1.78-1.48a5.85,5.85,0,0,0-1.65-3.95,6.88,6.88,0,0,0-7.26-1.75c-2.67.82-4.31,2.63-4.46,5.21s0,5.27,0,8H60.06c2.11,0,3,.82,3,2.69q0,6.36,0,12.72c0,1.83-.94,2.68-3,2.69H35.95c-2.09,0-3-.83-3-2.72,0-4.07.06-8.15,0-12.22C32.87,29.31,33.46,28,36.28,28Z"/></g></g></svg>