<svg xmlns="http://www.w3.org/2000/svg" viewBox="0 0 231.94 57.98"><defs><style>.cls-1{fill:#262626;}.cls-2{font-size:11.79px;fill:#fff;font-family:OpenSans-Regular, Open Sans;}.cls-3{fill:#8cc63f;}</style></defs><title>bouton contribuer</title><g id="Calque_2" data-name="Calque 2"><g id="Calque_1-2" data-name="Calque 1"><rect class="cls-1" width="231.94" height="57.98" rx="24.14" ry="24.14"/><text class="cls-2" transform="translate(92.34 25.61) scale(1.12 1)">CONTRIBUER <tspan x="0" y="14.15">AUX PROGRAMMES</tspan></text><path class="cls-3" d="M59.94,25.86c-.18.07-.42.09-.52.22-1,1.37-2.55,2.07-3.93,3-1.76,1.15-3.57,2.22-5.3,3.42-.63.44-1.28,1.17-1,2A3.55,3.55,0,0,0,50.64,36c.87.55,1.91.83,2.79,1.37a2.37,2.37,0,0,1,.94,3.3,6.89,6.89,0,0,1-4.43,3.48c-1.14.35-1.95-.32-2.34-1.75-.17-.61-.23-1.25-.4-1.86-.39-1.4-1.43-1.87-2.65-1.07a4.64,4.64,0,0,0-1.71,1.75c-1,2.12-1.8,4.31-2.6,6.5-.43,1.19-.9,1.48-2.14,1.15a14.35,14.35,0,0,1-6.18-3.94c-1.65-1.59-1.31-2.58.83-3.22a9.32,9.32,0,0,0,2.06-.9,1.76,1.76,0,0,0,.67-2.48,9.38,9.38,0,0,0-4-3.95c-1.61-.86-2.94,0-3.05,1.84a16.43,16.43,0,0,1-.33,2.4c-.25,1.2-.84,1.62-1.92,1.05a13.81,13.81,0,0,1-3-2.36c-1.47-1.41-2.19-3.31-3-5.12-.21-.44-.22-.74.27-1,1.26-.66,2.48-1.39,3.74-2a8.71,8.71,0,0,0,3.54-4c.38-.69,0-1.27-.8-1.52s-1.78-.52-2.64-.84c-2.31-.87-2.16-2.63-1.45-4.18a8.06,8.06,0,0,1,2-2.66,6.68,6.68,0,0,1,2.62-1.2A1.89,1.89,0,0,1,29.59,16c.15.31.3.63.47.94,1.21,2.19,3.25,1.95,4.51.37a29.77,29.77,0,0,0,2.27-3.59c.87-1.5,1.69-3,2.63-4.7,2.31.91,4.68,1.75,7,2.77a3.61,3.61,0,0,1,2.14,2.48A1.31,1.31,0,0,1,47.68,16c-.75.3-1.52.54-2.26.87-1.25.56-1.61,1.18-1.31,2.48.55,2.36,3.22,4.55,5.28,4.47A2.4,2.4,0,0,0,51.9,22c.13-.35.23-.72.36-1.07a2,2,0,0,1,3.15-1.15c1.64,1,2.58,2.54,3.67,4,.27.35.57.68.85,1Z"/></g></g></svg>