<svg xmlns="http://www.w3.org/2000/svg" viewBox="0 0 40 40"><defs><style>.cls-1{fill:#8CC63F;}</style></defs><title>FAQ NAV</title><g id="Calque_2" data-name="Calque 2"><g id="Calque_1-2" data-name="Calque 1"><path class="cls-1" d="M0,19.77A20,20,0,1,1,20,40,20,20,0,0,1,0,19.77Zm3.26.07A16.73,16.73,0,1,0,19.79,3.26C10.6,3.42,3.11,10.93,3.26,19.84Z"/><path class="cls-1" d="M21.87,24.53H17.35a7.27,7.27,0,0,1,1.49-5.75c.51-.69,1.06-1.35,1.57-2a5.69,5.69,0,0,0,.53-.86c.93-1.86.13-3.28-1.93-3.43-1.06-.08-1.78.11-3.69,1-.35-1.12-.73-2.22-1-3.35a.68.68,0,0,1,.3-.58,11.1,11.1,0,0,1,8.71-.66,5.1,5.1,0,0,1,3,6.91A13.9,13.9,0,0,1,24.2,18.9c-1,1.27-2.06,2.5-2.24,4.19C21.91,23.54,21.9,24,21.87,24.53Z"/><path class="cls-1" d="M16.4,29.37a3,3,0,0,1,3.1-3.16,3.15,3.15,0,0,1,0,6.3A3,3,0,0,1,16.4,29.37Z"/></g></g></svg>