<svg xmlns="http://www.w3.org/2000/svg" viewBox="0 0 69.92 80"><defs><style>.cls-1{fill:#8CC63F;}</style></defs><title>icone rapide saisir une obs</title><g id="Calque_2" data-name="Calque 2"><g id="Calque_1-2" data-name="Calque 1"><path class="cls-1" d="M17.86,3.82c0,3.77,0,7.3,0,10.84s-1.36,5.18-4.7,5.19c-2.67,0-5.33,0-8,0H3.59c0,.69-.06,1.2-.06,1.71,0,17.6,0,35.2,0,52.8,0,1.56.45,1.87,1.75,1.86q23.07-.07,46.15,0c1.44,0,1.8-.44,1.79-2-.07-8.9,0-17.81,0-26.71,0-.47-.14-1.06.06-1.38.41-.65.93-1.46,1.55-1.65.91-.28,1.57.46,1.79,1.51a6.34,6.34,0,0,1,0,1.24q0,13.82,0,27.65C56.58,78.46,55.18,80,52,80H4.84C1.32,80,0,78.56,0,74.63Q0,46.82,0,19a4.34,4.34,0,0,1,1.17-3.17Q7.76,8.61,14.26,1.26A3.33,3.33,0,0,1,17,0C28.71,0,40.44,0,52.18,0q4.37,0,4.4,4.89c0,1.56,0,3.12,0,4.69,0,1.73-.62,2.64-1.75,2.63s-1.67-.87-1.68-2.69c0-1.3-.08-2.61,0-3.9s-.3-1.86-1.62-1.85c-8.84.07-17.67,0-26.51,0ZM14.33,7.43l-7.7,8.44h7.7Z"/><path class="cls-1" d="M21.13,62.45l2.92-11.66H14.86c-.56,0-1.24.13-1.65-.16A2.81,2.81,0,0,1,12,48.87c0-.59.67-1.33,1.2-1.75.36-.28,1-.17,1.5-.18,4,0,8,0,12.06,0a2.36,2.36,0,0,0,1.59-.65c3.11-3.38,6.17-6.82,9.24-10.25.12-.13.22-.29.5-.68H14.64c-.47,0-1.08.15-1.37-.11A3.87,3.87,0,0,1,12,33.31a1.47,1.47,0,0,1,1.42-1.74,10.92,10.92,0,0,1,1.4,0c8.51,0,17,0,25.52,0a2.82,2.82,0,0,0,2.32-1.09q7.25-8.16,14.56-16.25c3.26-3.62,6.48-3.66,9.69.08a13.52,13.52,0,0,1,2.78,4.54c.8,2.59-.27,4.83-2,6.72Q57.37,37,47.13,48.42c-4,4.42-7.92,8.85-11.92,13.23a4.92,4.92,0,0,1-2,1.34c-3.35,1.11-6.71,2.26-10.12,3.08a24.42,24.42,0,0,1-5.3.18c-1.22,0-2.43,0-3.65,0-1.53,0-2.24-.58-2.27-1.84s.68-1.95,2.31-2C16.49,62.44,18.78,62.45,21.13,62.45ZM55.77,21.73,28.31,52.43l5,5.44L60.79,27.45Zm7.74,2.76c2.55-2.25,3.37-3.48,2.78-4.86-.81-1.88-2.06-3.65-3.95-4.08-2.09-.49-2.81,1.89-4.11,3ZM26.34,56,25,61.55,29.94,60Z"/></g></g></svg>