<svg xmlns="http://www.w3.org/2000/svg" viewBox="0 0 83.84 80.58"><defs><style>.cls-1{fill:#8cc63f;}</style></defs><title>icone exporter</title><g id="Calque_2" data-name="Calque 2"><g id="Calque_1-2" data-name="Calque 1"><path class="cls-1" d="M41.87,80.58H5.7C1.75,80.58,0,78.84,0,74.9q0-7.36,0-14.73c0-3.46,1.9-5.38,5.36-5.4,6.6,0,13.2,0,19.8,0a2.2,2.2,0,0,1,1.6.95,9.91,9.91,0,0,0,9.47,5.53c3.93-.09,7.86,0,11.78,0a9.47,9.47,0,0,0,8.89-5.33,2,2,0,0,1,2-1.19c6.44,0,12.87,0,19.31,0,3.77,0,5.6,1.86,5.6,5.66q0,7.36,0,14.73c0,3.6-1.84,5.42-5.47,5.42ZM64.49,71a3.23,3.23,0,0,0-6.46,0,3.23,3.23,0,0,0,6.46,0Zm6.5-.15a3.18,3.18,0,1,0,6.35.18A3.18,3.18,0,0,0,71,70.81Z"/><path class="cls-1" d="M32.24,29C28,29,24,29.06,20,29a5.06,5.06,0,0,1-2.85-.87c-1.59-1.25-1.47-3.19.16-4.84,3.64-3.69,7.32-7.34,11-11S35.41,5.14,39,1.6c2.14-2.13,3.76-2.14,5.89,0Q55.57,12.29,66.27,23c1.1,1.1,1.9,2.23,1.23,3.91s-2,2.11-3.68,2.1c-4,0-8,0-12.21,0,0,.75,0,1.38,0,2q0,9.74,0,19.48c0,3.32-1,4.27-4.28,4.27H36c-2.63,0-3.77-1.1-3.79-3.78,0-6.6,0-13.2,0-19.8C32.24,30.54,32.24,29.89,32.24,29Z"/><path class="cls-1" d="M64.49,71a3.23,3.23,0,0,1-6.46,0,3.23,3.23,0,0,1,6.46,0Z"/><path class="cls-1" d="M71,70.81a3.18,3.18,0,0,1,6.35.18A3.18,3.18,0,1,1,71,70.81Z"/></g></g></svg>