<svg xmlns="http://www.w3.org/2000/svg" viewBox="0 0 75.09 80"><defs><style>.cls-1{fill:#8cc63f;}</style></defs><title>icone rapide espace pro</title><g id="Calque_2" data-name="Calque 2"><g id="Calque_1-2" data-name="Calque 1"><path class="cls-1" d="M26.69,41.21c-.84.56-2,.94-2.2,1.58s.4,1.65.66,2.49q4.16,12.93,8.33,25.85a1.94,1.94,0,0,0,.65,1A9.14,9.14,0,0,0,34.31,71q.46-7.64.91-15.28c0-.28,0-.56,0-.84.12-1.64.65-2.14,2.24-2.13s2.19.52,2.31,2.21Q40.39,63.4,41,71.81l.46.05L51,42.64l-2.62-1.25,1.11-2.76C64.21,41.47,72.73,49.88,75,61.55a3.2,3.2,0,0,1-.89,3C64.26,74.92,52.07,80.42,37,80c-14-.42-25.91-5.27-35.57-14.8A4.2,4.2,0,0,1,.16,60.82C2.08,53,6.25,46.58,14,42.72a111.73,111.73,0,0,1,10.65-4.1.84.84,0,0,1,1.26.59C26.13,39.89,26.43,40.55,26.69,41.21ZM61.61,65.65c-4.53.53-8.94,1-13.35,1.58a6.35,6.35,0,0,0-1.24.41l0,.57a12.25,12.25,0,0,0,2.86.39c3.1-.3,6.18-.78,9.28-1.13A2.6,2.6,0,0,0,61.61,65.65Z"/><path class="cls-1" d="M55.29,14.73c-1.19.08-1,.72-.94,1.45a57.84,57.84,0,0,1,.37,7.1A7.29,7.29,0,0,1,53.4,26.6c-2.18,3.46-4.12,7.13-6.82,10.22a12.31,12.31,0,0,1-18.23.42c-3.88-4.07-7.27-8.65-7.86-14.34A30.56,30.56,0,0,1,21.57,9.76c1.78-5.23,5.59-8.44,11.5-9.34,4.47-.68,8.88-.7,13,1.27a13.83,13.83,0,0,1,7.5,8C54.18,11.27,54.69,12.91,55.29,14.73Zm-23.57-.14c-1.31,1.09-2.37,1.92-3.38,2.81-3.57,3.18-3.16,1.94-2.35,6.41A19.51,19.51,0,0,0,31.63,35c3.55,3.36,8.24,3.5,11.68.07a19.47,19.47,0,0,0,5.6-18.45,12.48,12.48,0,0,0-3.35-6.32L44.2,14.54l-1.31-2.08a23.8,23.8,0,0,1-12.09,6Z"/><path class="cls-1" d="M37.62,45.78c2.72,0,3.63.57,3.79,2.56,0,.08,0,.16,0,.24,0,1.19-.91,2.14-2.44,2.56-1.87.5-4.13-.11-5-1.34a2.61,2.61,0,0,1,.45-3.29,11.65,11.65,0,0,1,3-1Z"/></g></g></svg>