<svg xmlns="http://www.w3.org/2000/svg" viewBox="0 0 17.83 40"><defs><style>.cls-1{fill:#999;}</style></defs><title>icone facebook</title><g id="Calque_2" data-name="Calque 2"><g id="Calque_1-2" data-name="Calque 1"><path class="cls-1" d="M4.45,21.28c-1.25,0-2.41,0-3.58,0-.62,0-.88-.26-.87-1,0-2,0-4,0-5.93,0-.68.26-1,.88-1,1.23,0,2.46,0,3.75,0,0-1.69.12-3.31,0-4.9a7.44,7.44,0,0,1,5.17-8A20.83,20.83,0,0,1,14.27,0C15.18,0,16.1,0,17,0c.56,0,.81.29.81.89,0,1.87,0,3.75,0,5.62,0,.61-.25.89-.8.87q-1.51,0-3,0c-1.37,0-1.86.61-1.87,2.15,0,1.27,0,2.54,0,3.91h2.93c.67,0,1.33,0,2,0s.81.3.75.91c-.2,2.09-.42,4.18-.63,6.28a.75.75,0,0,1-.84.79c-1.37,0-2.74,0-4.2,0v1q0,8.16,0,16.31C12.13,39.91,12,40,11,40H5.49c-.91,0-1-.14-1-1.17q0-8.27,0-16.55C4.45,22,4.45,21.67,4.45,21.28Z"/></g></g></svg>