<svg xmlns="http://www.w3.org/2000/svg" viewBox="0 0 40 40">
    <defs>
        <style>.cls-1{fill:#8CC63F;}</style>
    </defs>
    <title>PUZZLE PROG NAV</title>
    <g id="Calque_2" data-name="Calque 2">
        <g id="Calque_1-2" data-name="Calque 1">
            <path class="cls-1"
                  d="M40,16.87c-.18.07-.42.09-.52.22-1,1.37-2.55,2.07-3.93,3-1.76,1.15-3.57,2.22-5.3,3.42-.63.44-1.28,1.17-1,2A3.55,3.55,0,0,0,30.7,27c.87.55,1.91.83,2.79,1.37a2.37,2.37,0,0,1,.94,3.3A6.89,6.89,0,0,1,30,35.15c-1.14.35-1.95-.32-2.34-1.75-.17-.61-.23-1.25-.4-1.86-.39-1.4-1.43-1.87-2.65-1.07a4.64,4.64,0,0,0-1.71,1.75c-1,2.12-1.8,4.31-2.6,6.5-.43,1.19-.9,1.48-2.14,1.15A14.35,14.35,0,0,1,12,35.93c-1.65-1.59-1.31-2.58.83-3.22a9.32,9.32,0,0,0,2.06-.9,1.76,1.76,0,0,0,.67-2.48,9.38,9.38,0,0,0-4-3.95c-1.61-.86-2.94,0-3.05,1.84a16.43,16.43,0,0,1-.33,2.4c-.25,1.2-.84,1.62-1.92,1.05a13.81,13.81,0,0,1-3-2.36C1.71,26.91,1,25,.14,23.2c-.21-.44-.22-.74.27-1,1.26-.66,2.48-1.39,3.74-2a8.71,8.71,0,0,0,3.54-4c.38-.69,0-1.27-.8-1.52s-1.78-.52-2.64-.84C1.93,12.91,2.08,11.14,2.8,9.6a8.06,8.06,0,0,1,2-2.66,6.68,6.68,0,0,1,2.62-1.2A1.89,1.89,0,0,1,9.65,7c.15.31.3.63.47.94,1.21,2.19,3.25,1.95,4.51.37A29.77,29.77,0,0,0,16.89,4.7c.87-1.5,1.69-3,2.63-4.7,2.31.91,4.68,1.75,7,2.77a3.61,3.61,0,0,1,2.14,2.48A1.31,1.31,0,0,1,27.74,7c-.75.3-1.52.54-2.26.87-1.25.56-1.61,1.18-1.31,2.48.55,2.36,3.22,4.55,5.28,4.47A2.4,2.4,0,0,0,32,13c.13-.35.23-.72.36-1.07a2,2,0,0,1,3.15-1.15c1.64,1,2.58,2.54,3.67,4,.27.35.57.68.85,1Z"/>
        </g>
    </g>
</svg>