<svg xmlns="http://www.w3.org/2000/svg" viewBox="0 0 107.81 27.03"><defs><style>.cls-1{fill:#8cc63f;}.cls-2{font-size:8.25px;font-family:OpenSans-Regular, Open Sans;}.cls-2,.cls-3{fill:#fff;}</style></defs><title>bouton debloquer auteur</title><g id="Calque_2" data-name="Calque 2"><g id="Calque_1-2" data-name="Calque 1"><rect class="cls-1" width="107.81" height="27.03" rx="13.52" ry="13.52"/><text class="cls-2" transform="translate(42.01 11.36) scale(1.12 1)">Débloquer<tspan x="0" y="9.9">L’auteur</tspan></text><path class="cls-3" d="M29.2,13H26.78c0-.13,0-.25,0-.36,0-.91,0-1.82,0-2.73a2.2,2.2,0,0,0-4.41,0c0,.16,0,.32,0,.48,0,.79,0,1.58,0,2.39l.31,0a1.74,1.74,0,0,1,1.44,1.76q0,3,0,5.9a1.69,1.69,0,0,1-1.57,1.75H13.84a1.66,1.66,0,0,1-1.7-1.39,2.78,2.78,0,0,1,0-.59q0-2.73,0-5.46a1.92,1.92,0,0,1,1.83-2h5.95c0-.58,0-1.14,0-1.69A14,14,0,0,1,20,8.82,4.73,4.73,0,0,1,23.76,5.1a4.43,4.43,0,0,1,4.7,2.26,4.67,4.67,0,0,1,.73,2.42C29.21,10.83,29.2,11.88,29.2,13ZM17.34,20.48h1.47c0-.52,0-1,0-1.52a.58.58,0,0,1,.16-.37,1.69,1.69,0,0,0,.16-2.34,1.38,1.38,0,0,0-2.13,0,1.69,1.69,0,0,0,.17,2.34.54.54,0,0,1,.15.34C17.35,19.45,17.34,20,17.34,20.48Z"/></g></g></svg>