<svg xmlns="http://www.w3.org/2000/svg" viewBox="0 0 107.81 27.03"><defs><style>.cls-1{fill:#8cc63f;}.cls-2{font-size:8.25px;font-family:OpenSans-Regular, Open Sans;}.cls-2,.cls-3{fill:#fff;}</style></defs><title>bouton valider</title><g id="Calque_2" data-name="Calque 2"><g id="Calque_1-2" data-name="Calque 1"><rect class="cls-1" width="107.81" height="27.03" rx="13.52" ry="13.52"/><text class="cls-2" transform="translate(42.01 16.36) scale(1.12 1)">VALIDER</text><path class="cls-3" d="M25,11.23c.26-.29.51-.58.79-.86.49-.48,1-.94,1.5-1.4l.11-.07q0,4.9,0,9.8a1.2,1.2,0,0,0,0,.2A2.35,2.35,0,0,1,25.27,21L25,21H12.78l-.26,0A2.35,2.35,0,0,1,10.33,19a1.76,1.76,0,0,0,0-.24q0-5.43,0-10.87a1.66,1.66,0,0,0,0-.24,2.31,2.31,0,0,1,2.06-2.05h.16c.16,0,.33,0,.49,0h11.2l-.08.11L22,7.66l-.09.08H13.07a1.5,1.5,0,0,0-.22,0h0a1.52,1.52,0,0,0,0,.27q0,3.12,0,6.23,0,2.26,0,4.52a1.81,1.81,0,0,0,.26,0H24.77a1.82,1.82,0,0,0,.26,0Z"/><path class="cls-3" d="M18.94,13.38c.59-.84,1.15-1.67,1.76-2.47a26.57,26.57,0,0,1,7.43-6.73,1.43,1.43,0,0,1,1.22-.22,1.1,1.1,0,0,1,.85.9,1,1,0,0,1-.54,1.09A22.51,22.51,0,0,0,25.57,9a26.65,26.65,0,0,0-5.21,6.82,1.31,1.31,0,0,1-2.22.27L17,14.75l-2.52-3A1.07,1.07,0,0,1,15.17,10a1.19,1.19,0,0,1,1.21.38c.82.95,1.62,1.9,2.42,2.85Z"/><path class="cls-3" d="M12.52,21l.26,0H25l.26,0H12.52Z"/><path class="cls-3" d="M10.33,7.63a1.66,1.66,0,0,1,0,.24q0,5.43,0,10.87a1.76,1.76,0,0,1,0,.24c0-.07,0-.14,0-.2q0-5.48,0-11C10.32,7.75,10.33,7.69,10.33,7.63Z"/><path class="cls-3" d="M25,18.79a1.82,1.82,0,0,1-.26,0H13a1.81,1.81,0,0,1-.26,0H25Z"/><path class="cls-3" d="M12.81,18.79h0q0-2.26,0-4.52,0-3.12,0-6.23a1.52,1.52,0,0,1,0-.27s0,.1,0,.15q0,5.38,0,10.76S12.81,18.75,12.81,18.79Z"/><path class="cls-3" d="M27.46,18.9a1.2,1.2,0,0,1,0-.2q0-4.9,0-9.8a.67.67,0,0,1,0,.16q0,4.89,0,9.77S27.46,18.87,27.46,18.9Z"/><path class="cls-3" d="M12.85,7.77a1.5,1.5,0,0,1,.22,0h8.84a.73.73,0,0,1-.15,0Z"/><path class="cls-3" d="M25,18.79h0q0-3.66,0-7.32a1.43,1.43,0,0,1,0-.23Z"/><path class="cls-3" d="M12.55,5.57h0Z"/></g></g></svg>