<svg xmlns="http://www.w3.org/2000/svg" viewBox="0 0 234.61 58.65"><defs><style>.cls-1{fill:#262626;}.cls-2{font-size:14.08px;fill:#f2f2f2;font-family:OpenSans-Regular, Open Sans;}.cls-3{fill:#8cc63f;}</style></defs><title>bouton se connecter</title><g id="Calque_2" data-name="Calque 2"><g id="Calque_1-2" data-name="Calque 1"><rect class="cls-1" width="234.61" height="58.65" rx="24.14" ry="24.14"/><text class="cls-2" transform="translate(94.61 33.38) scale(0.92 1)">SE CONNECTER</text><path class="cls-3" d="M29.8,26.85c0-2.65-.06-5.25,0-7.84a14,14,0,0,1,.57-4A11.14,11.14,0,0,1,39.32,7.1C44.16,6.22,48.09,8,51,11.92a11.09,11.09,0,0,1,2.09,6.42,1.65,1.65,0,0,1-1.79,1.86h-1.4a1.56,1.56,0,0,1-1.77-1.63,6.85,6.85,0,0,0-1.64-4.36,6.37,6.37,0,0,0-7.22-1.94A6.15,6.15,0,0,0,34.85,18c-.15,2.9,0,5.82,0,8.86H53.44c2.1,0,3,.9,3,3q0,7,0,14c0,2-.93,3-3,3h-24c-2.08,0-3-.92-3-3,0-4.5.06-9,0-13.5C26.41,28.34,27,26.84,29.8,26.85Z"/></g></g></svg>