<svg xmlns="http://www.w3.org/2000/svg" viewBox="0 0 234.61 58.65"><defs><style>.cls-1{fill:#262626;}.cls-2{font-size:14.08px;fill:#f2f2f2;font-family:OpenSans-Regular, Open Sans;}.cls-3{fill:#8cc63f;}</style></defs><title>bouton s4inscrire</title><g id="Calque_2" data-name="Calque 2"><g id="Calque_1-2" data-name="Calque 1"><rect class="cls-1" width="234.61" height="58.65" rx="24.14" ry="24.14"/><text class="cls-2" transform="translate(94.61 33.38) scale(0.92 1)">S’INSCRIRE</text><path class="cls-3" d="M48.07,27.73C42,27.77,37,23.33,37,17.85s4.91-9.92,11-10,11.08,4.35,11.14,9.84S54.24,27.7,48.07,27.73Z"/><path class="cls-3" d="M58.37,34v5.14h-5.7v6.28H31.86a19.6,19.6,0,0,1,.62-5,17,17,0,0,1,6.25-9c.84-.67,1.7-1.32,2.53-2a.8.8,0,0,1,.94-.14,14.48,14.48,0,0,0,11.67,0,1,1,0,0,1,.75,0c1.85,1.48,3.66,3,5.49,4.48L60,34Z"/><path class="cls-3" d="M64.93,45.08v5.07h-4V45.07H55.22V41.51h5.66V36.39h4v5.08h5.7v3.61Z"/></g></g></svg>