<svg xmlns="http://www.w3.org/2000/svg" viewBox="0 0 163 27.03"><defs><style>.cls-1{fill:#8cc63f;}.cls-2{font-size:11px;fill:#262626;font-family:OpenSans-Regular, Open Sans;}.cls-3{fill:#fff;}</style></defs><title>bouton publier</title><g id="Calque_2" data-name="Calque 2"><g id="Calque_1-2" data-name="Calque 1"><rect class="cls-1" width="163" height="27.03" rx="13.52" ry="13.52"/><text class="cls-2" transform="translate(58.77 17.25)">PUBLIER</text><path class="cls-3" d="M32.34,20.28c0-.88,0-1.74,0-2.59a.61.61,0,0,1,.12-.42c.91-.75,1.83-1.48,2.83-2.28,0,.55,0,1,0,1.46,0,1.26,0,2.52,0,3.79a3,3,0,0,1-3,3H17.61a2.92,2.92,0,0,1-3-3q0-5.13,0-10.25a2.83,2.83,0,0,1,2.68-3c2.38-.09,4.76,0,7.26,0l-1,.8c-.79.64-1.58,1.28-2.39,1.89a1.21,1.21,0,0,1-.66.24c-1,0-1.93,0-2.93,0V20.28Z"/><path class="cls-3" d="M20.52,17.31c-.18-4.58,4-10.11,10.32-10.36V4L38.25,10l-7.37,5.89V12.94a12,12,0,0,0-5.63,1A16.39,16.39,0,0,0,20.52,17.31Z"/></g></g></svg>