<svg xmlns="http://www.w3.org/2000/svg" viewBox="0 0 234.61 58.65"><defs><style>.cls-1{fill:#262626;}.cls-2{font-size:14.08px;fill:#f2f2f2;font-family:OpenSans-Regular, Open Sans;}.cls-3{fill:#8cc63f;}</style></defs><title>bouton me localiser</title><g id="Calque_2" data-name="Calque 2"><g id="Calque_1-2" data-name="Calque 1"><rect class="cls-1" width="234.61" height="58.65" rx="24.14" ry="24.14"/><text class="cls-2" transform="translate(94.61 33.38) scale(0.92 1)">ME LOCALISER</text><path class="cls-3" d="M39,37a50.91,50.91,0,0,1-6.58-6.57,26.24,26.24,0,0,1-4.63-7.69,11.75,11.75,0,0,1,6-14.9C41,4.35,50,9.11,50.87,17a14.34,14.34,0,0,1-2.08,8.8A42.86,42.86,0,0,1,39,37ZM32.84,17.15a6.27,6.27,0,0,0,12.53.21,6.27,6.27,0,0,0-12.53-.21Z"/><path class="cls-3" d="M35.2,39c-1.83.47-3.62.88-5.37,1.42a7.09,7.09,0,0,0-2,1.12c-.58.43-.58.89,0,1.26a11.83,11.83,0,0,0,2.89,1.42,30.74,30.74,0,0,0,16.88,0,11.05,11.05,0,0,0,2.77-1.33c.75-.47.75-1.07,0-1.51A15.14,15.14,0,0,0,47.17,40c-1.28-.38-2.62-.54-3.94-.79l-.55-.13c.81-.75,1.53-1.43,2.28-2.09a.64.64,0,0,1,.48-.11,16.09,16.09,0,0,1,6.22,2.25c2.64,1.83,2.59,4.42-.11,6.2a15.18,15.18,0,0,1-5.59,2,35.3,35.3,0,0,1-14.35-.14,13.84,13.84,0,0,1-5-1.94c-1.69-1.16-2.35-2.75-1.75-4.17a5.08,5.08,0,0,1,2.32-2.36A16.63,16.63,0,0,1,32.51,37,.68.68,0,0,1,33,37C33.76,37.7,34.5,38.39,35.2,39Z"/></g></g></svg>