<?xml version="1.0" encoding="UTF-8" standalone="no"?><!DOCTYPE svg PUBLIC "-//W3C//DTD SVG 1.1//EN" "http://www.w3.org/Graphics/SVG/1.1/DTD/svg11.dtd"><svg width="100%" height="100%" viewBox="0 0 72 63" version="1.1" xmlns="http://www.w3.org/2000/svg" xmlns:xlink="http://www.w3.org/1999/xlink" xml:space="preserve" style="fill-rule:evenodd;clip-rule:evenodd;stroke-linejoin:round;stroke-miterlimit:1.41421;"><path d="M60.777,23.108c1.067,-1.158 2.086,-2.362 3.25,-3.449c2.013,-1.913 4.123,-3.779 6.209,-5.646c0.152,-0.116 0.314,-0.218 0.485,-0.307c0,13.15 0,26.3 0,39.449c0.025,0.271 0.074,0.54 0.145,0.803c-0.442,4.611 -4.302,8.259 -9.046,8.552c-0.364,-0.02 -0.728,-0.02 -1.091,0l-50.567,0c-0.364,-0.02 -0.728,-0.02 -1.092,0c-4.657,-0.261 -8.495,-3.759 -9.07,-8.268c0.063,-0.32 0.104,-0.644 0.121,-0.969c0,-14.582 0,-29.165 0,-43.748c-0.017,-0.317 -0.057,-0.633 -0.121,-0.945c0.48,-4.358 4.059,-7.825 8.537,-8.267l0.655,0c0.679,0 1.358,-0.166 2.037,-0.166l46.298,0c-0.082,0.173 -0.18,0.339 -0.291,0.496l-8.973,8.079l-0.388,0.307l-36.549,0c-0.31,0.017 -0.618,0.056 -0.922,0.118l-0.121,0c-0.098,0.356 -0.163,0.72 -0.194,1.087l0,43.276c0.352,0.072 0.708,0.119 1.067,0.141l48.505,0c0.359,-0.022 0.716,-0.07 1.068,-0.141l0.048,-30.402Z" style="fill:#999;fill-rule:nonzero;"/></svg>