<svg xmlns="http://www.w3.org/2000/svg" viewBox="0 0 41.64 54.26"><defs><style>.cls-1{fill:#939498;}</style></defs><title>cadenas fermé user vert</title><g id="Calque_2" data-name="Calque 2"><g id="Calque_1-2" data-name="Calque 1"><path class="cls-1" d="M4,22c0-1.76,0-3.34,0-4.92A16.84,16.84,0,0,1,24.17.37c8.13,1.79,13.38,8.43,13.46,17,0,1.47,0,2.95,0,4.46.6.06,1.1.07,1.57.17a3.33,3.33,0,0,1,2.35,2.84,10,10,0,0,1,.08,1.48q0,11.7,0,23.39A8,8,0,0,1,41.35,52a2.91,2.91,0,0,1-3.08,2.21H3.44A3.17,3.17,0,0,1,.08,51.31,9.92,9.92,0,0,1,0,49.94C0,42,0,34.06,0,26.12a6.53,6.53,0,0,1,.64-2.72C1.28,22.16,2.49,21.83,4,22Zm26.58-.11c0-2,.12-3.94,0-5.86a9.85,9.85,0,0,0-8.92-9,9.73,9.73,0,0,0-10.26,7.22,51.63,51.63,0,0,0-.59,7.61ZM17.46,42c0,1,0,2,0,3.07,0,1.53.5,2.06,2,2.09q1.37,0,2.75,0c1.43,0,2-.58,2-2,0-2,0-4.09,0-6.13a3.14,3.14,0,0,1,.48-1.53,4.73,4.73,0,0,0-.58-5.92,4.88,4.88,0,0,0-6.22-.32A4.44,4.44,0,0,0,16.74,37a5,5,0,0,1,.73,3.06C17.43,40.73,17.46,41.37,17.46,42Z"/></g></g></svg>