<?xml version="1.0" encoding="UTF-8" standalone="no"?><!DOCTYPE svg PUBLIC "-//W3C//DTD SVG 1.1//EN" "http://www.w3.org/Graphics/SVG/1.1/DTD/svg11.dtd"><svg width="100%" height="100%" viewBox="0 0 66 52" version="1.1" xmlns="http://www.w3.org/2000/svg" xmlns:xlink="http://www.w3.org/1999/xlink" xml:space="preserve" style="fill-rule:evenodd;clip-rule:evenodd;stroke-linejoin:round;stroke-miterlimit:1.41421;"><path d="M19.475,38.065c2.389,-3.37 4.777,-6.715 7.166,-9.919c8.249,-10.827 18.513,-20.007 30.243,-27.048c1.425,-1.019 3.245,-1.349 4.944,-0.895c1.781,0.398 3.145,1.828 3.44,3.605c0.335,1.775 -0.564,3.567 -2.197,4.382c-5.975,3.484 -11.529,7.625 -16.555,12.346c-8.541,7.931 -15.721,17.177 -21.26,27.377c-0.855,1.891 -2.767,3.114 -4.866,3.114c-1.633,0 -3.179,-0.74 -4.188,-2.007l-4.777,-5.466c-3.416,-3.982 -6.856,-7.963 -10.248,-11.945c-0.669,-0.779 -1.036,-1.766 -1.036,-2.787c0,-2.173 1.666,-4.024 3.854,-4.281c1.803,-0.497 3.742,0.094 4.945,1.508c3.321,3.793 6.593,7.633 9.866,11.45l0.669,0.566Z" style="fill:#8cc63f;fill-rule:nonzero;"/></svg>