<svg xmlns="http://www.w3.org/2000/svg" viewBox="0 0 85.66 99.78"><defs><style>.cls-1,.cls-2{fill:#999;}.cls-2{font-size:12px;font-family:OpenSans-Regular, Open Sans;}</style></defs><title>EXPORTER LES DONNEES</title><g id="Calque_2" data-name="Calque 2"><g id="Calque_1-2" data-name="Calque 1"><path class="cls-1" d="M42.21,65h-28c-3.06,0-4.41-1.4-4.42-4.58q0-5.94,0-11.88c0-2.79,1.47-4.34,4.15-4.35,5.12,0,10.24,0,15.35,0a1.69,1.69,0,0,1,1.24.76c1.62,3,4,4.53,7.34,4.46,3-.07,6.09,0,9.13,0a7.31,7.31,0,0,0,6.89-4.3,1.51,1.51,0,0,1,1.56-1c5,0,10,0,15,0,2.92,0,4.34,1.5,4.35,4.56q0,5.94,0,11.88c0,2.91-1.43,4.37-4.24,4.37Zm17.54-7.76a2.5,2.5,0,1,0-5,0,2.5,2.5,0,1,0,5,0Zm5-.12a2.47,2.47,0,1,0,4.92.14,2.46,2.46,0,1,0-4.92-.14Z"/><path class="cls-1" d="M34.74,23.4c-3.3,0-6.38,0-9.46,0a3.82,3.82,0,0,1-2.21-.7c-1.24-1-1.14-2.57.12-3.9,2.82-3,5.67-5.92,8.51-8.88S37.2,4.15,40,1.29c1.66-1.72,2.92-1.72,4.57,0q8.31,8.63,16.59,17.28c.85.89,1.47,1.8.95,3.15a2.62,2.62,0,0,1-2.85,1.69c-3.08,0-6.16,0-9.47,0,0,.61,0,1.11,0,1.62q0,7.86,0,15.71c0,2.67-.76,3.45-3.32,3.45H37.68c-2,0-2.93-.88-2.93-3,0-5.33,0-10.65,0-16C34.74,24.63,34.74,24.11,34.74,23.4Z"/><text class="cls-2" transform="translate(1.62 82.13)">EXPORTER LES <tspan x="12.4" y="14.4">DONNEES</tspan></text></g></g></svg>