<svg xmlns="http://www.w3.org/2000/svg" viewBox="0 0 30 39"><defs><style>.cls-1{fill:#8CC63F;}</style></defs><title>icone mentions -docs</title><g id="Calque_2" data-name="Calque 2"><g id="Calque_1-2" data-name="Calque 1"><path class="cls-1" d="M0,21.41Q0,14.6,0,7.78A3.67,3.67,0,0,1,2.57,4a4.69,4.69,0,0,1,1.27-.15H21.72c2.42,0,3.83,1.54,3.83,4.17q0,13.45,0,26.9c0,2.59-1.42,4.12-3.81,4.13H3.8C1.41,39,0,37.47,0,34.86Q0,28.14,0,21.41Zm3.93-8.52H21.61V10.81H3.93Zm17.69,2.67H3.94v2.06H21.62ZM3.92,27.1H21.61V25H3.92Zm0-4.76H21.62v-2H3.93Zm0,9.75H21.62v-2H3.93Z"/><path class="cls-1" d="M27.54,35v-.79q0-12.7,0-25.39a5.92,5.92,0,0,0-3.09-5.56,5.36,5.36,0,0,0-2.7-.6H4.59A6.41,6.41,0,0,1,4.85,2,3.5,3.5,0,0,1,8.22,0H26.16c.2,0,.41,0,.61,0A3.56,3.56,0,0,1,30,3.45c0,.22,0,.44,0,.66q0,13.51,0,27a3.89,3.89,0,0,1-1.84,3.6A6.49,6.49,0,0,1,27.54,35Z"/></g></g></svg>