<svg xmlns="http://www.w3.org/2000/svg" viewBox="0 0 40 40"><defs><style>.cls-1{fill:#00a99d;}</style></defs><title>icone saisir obs pro</title><g id="Calque_2" data-name="Calque 2"><g id="Calque_1-2" data-name="Calque 1"><path class="cls-1" d="M10.22,1.91c0,1.88,0,3.65,0,5.42s-.78,2.59-2.69,2.6H2.05c0,.35,0,.6,0,.85,0,8.8,0,17.6,0,26.4,0,.78.26.93,1,.93q13.2,0,26.4,0c.82,0,1-.22,1-1,0-4.45,0-8.9,0-13.35,0-.23-.08-.53,0-.69.23-.33.53-.73.88-.83.52-.14.9.23,1,.76a2.78,2.78,0,0,1,0,.62q0,6.91,0,13.82c0,1.79-.8,2.56-2.64,2.56h-27C.76,40,0,39.28,0,37.31q0-13.9,0-27.8A2,2,0,0,1,.67,7.92Q4.44,4.3,8.16.63A2,2,0,0,1,9.71,0c6.71,0,13.43,0,20.14,0a2.2,2.2,0,0,1,2.52,2.45c0,.78,0,1.56,0,2.34s-.35,1.32-1,1.31-1-.44-1-1.34c0-.65,0-1.31,0-2s-.17-.93-.93-.93c-5.06,0-10.11,0-15.17,0Zm-2,1.8L3.79,7.94H8.2Z"/><path class="cls-1" d="M12.09,31.23l1.67-5.83H8.5a2,2,0,0,1-.94-.08c-.31-.2-.7-.57-.7-.88s.38-.66.69-.88a1.68,1.68,0,0,1,.86-.09c2.3,0,4.6,0,6.9,0a1.46,1.46,0,0,0,.91-.32C18,21.44,19.74,19.72,21.5,18c.07-.07.12-.15.29-.34H8.37c-.27,0-.62.08-.78-.05a2,2,0,0,1-.75-1c-.1-.48.29-.81.81-.87a7.14,7.14,0,0,1,.8,0c4.87,0,9.73,0,14.6,0a1.71,1.71,0,0,0,1.32-.54q4.15-4.08,8.33-8.13c1.86-1.81,3.71-1.83,5.54,0a6.68,6.68,0,0,1,1.59,2.27,3.12,3.12,0,0,1-1.14,3.36Q32.82,18.48,27,24.21c-2.27,2.21-4.53,4.42-6.82,6.61a2.87,2.87,0,0,1-1.13.67c-1.92.55-3.84,1.13-5.79,1.54a16,16,0,0,1-3,.09H8.1c-.88,0-1.28-.29-1.3-.92s.39-1,1.32-1ZM31.91,10.86,16.2,26.21l2.87,2.72L34.78,13.72Zm4.43,1.38c1.46-1.13,1.93-1.74,1.59-2.43a3.43,3.43,0,0,0-2.26-2c-1.2-.24-1.61.94-2.35,1.48ZM15.07,28l-.77,2.79L17.13,30Z"/></g></g></svg>