<svg xmlns="http://www.w3.org/2000/svg" viewBox="0 0 40 40"><defs><style>.cls-1{fill:#999;}</style></defs><title>icone you tube</title><g id="Calque_2" data-name="Calque 2"><g id="Calque_1-2" data-name="Calque 1"><path class="cls-1" d="M19.94,18H33.4c3.73,0,6.5,2.18,6.56,5.28.07,3.8,0,7.6,0,11.39,0,3.54-3.52,5.38-6.6,5.37-8.88,0-17.76,0-26.64,0C3.6,40,1.05,38.48.29,36.17A5.78,5.78,0,0,1,0,34.4q0-5.46,0-10.93C0,20.2,2.74,18,6.66,18Zm2.9,7.91a1.81,1.81,0,0,1-.07-.32c0-1,0-2.08,0-3.12,0-.39-.12-.58-.63-.54s-.81,0-1.21,0c-1,0-.94-.08-.94.8Q20,29,20,35.24a2.29,2.29,0,0,0,0,.54c0,.1.16.25.25.26A8.39,8.39,0,0,0,22,36c.24-.05.37-.45.56-.7.36.2.7.43,1.08.6,1.47.69,2.72.3,3.23-1a4.85,4.85,0,0,0,.29-1.61c0-1.82,0-3.64,0-5.46a3.57,3.57,0,0,0-.24-1.3A2.17,2.17,0,0,0,24,25.36C23.64,25.49,23.27,25.67,22.84,25.86Zm-6.78,9.32c.1.94.1.94,1.39.94h.09c.79,0,.8,0,.8-.7q0-4.13,0-8.27c0-1.64,0-1.64-2-1.6-.81,0-.83,0-.82.7,0,2.31,0,4.63,0,6.94a1.44,1.44,0,0,1-.27.87,1,1,0,0,1-.78.28c-.23,0-.45-.31-.57-.53a1.29,1.29,0,0,1,0-.61c0-2.34,0-4.68,0-7,0-.45-.12-.69-.72-.65s-1,0-1.49,0-.54.15-.53.47c0,.75,0,1.51,0,2.26,0,2.11,0,4.21,0,6.32,0,1.3,1,1.89,2.51,1.52A16.77,16.77,0,0,0,16.05,35.18Zm12.74-4.87h.09c0,.68,0,1.35,0,2a6.65,6.65,0,0,0,.39,1.9,3.51,3.51,0,0,0,4,1.93A3.06,3.06,0,0,0,36,33c0-.42-.21-.57-.74-.57-1.37,0-1.37,0-1.42,1.07,0,.74-.4,1-1.24,1.07s-1.38-.25-1.43-1c0-.6,0-1.19,0-1.79s0-.67.83-.67h3.36c.27,0,.59,0,.58-.32-.06-1.37-.09-2.75-.2-4.12a1.73,1.73,0,0,0-1.09-1.29c-2.08-1.08-5-.13-5.46,1.87A22.12,22.12,0,0,0,28.79,30.32Zm-23.2-.45v4.53c0,1.84,0,1.83,2.19,1.73.44,0,.61-.13.59-.5,0-.55,0-1.09,0-1.64,0-3.2,0-6.4,0-9.6,0-.5.16-.7.78-.66s1.31,0,2,0c.17,0,.47-.08.48-.14a10.82,10.82,0,0,0,0-1.55c0-.06-.3-.14-.46-.15-.69,0-1.37,0-2.06,0-1.87,0-3.74,0-5.61,0-.46,0-.67.08-.66.52,0,1.51-.16,1.26,1.45,1.28a4.75,4.75,0,0,0,.56,0c.6-.06.8.13.79.65C5.56,26.17,5.59,28,5.59,29.86Z"/><path class="cls-1" d="M6.08,0C7,0,7.8,0,8.6,0c.46,0,.65.13.77.5.45,1.38.95,2.74,1.43,4.11.06.17.14.33.29.65.57-1.64,1.12-3.11,1.57-4.61.17-.54.45-.7,1.09-.66s1.49,0,2.33,0c-.62,1.3-1.11,2.56-1.8,3.74a11.57,11.57,0,0,0-1.64,7.08c.13,1.4,0,2.81,0,4.21,0,.48-.17.66-.74.62s-.87,0-1.31,0c-.92,0-.92,0-.92-.75,0-2.26,0-4.53,0-6.79A3.56,3.56,0,0,0,9.29,6.4c-1-1.86-1.9-3.73-2.84-5.59C6.32.57,6.23.34,6.08,0Z"/><path class="cls-1" d="M28.8,14.61a2.34,2.34,0,0,1-1.86.9,1.67,1.67,0,0,1-1.7-1,6,6,0,0,1-.34-1.84c0-2.55,0-5.1,0-7.65,0-.48.12-.68.77-.68,1.8,0,1.8,0,1.8,1.45q0,3.24,0,6.48c0,1,.32,1.48,1,1.46s1-.46,1-1.5q0-3.55,0-7.1c0-.76,0-.76.91-.76,1.52,0,1.52,0,1.52,1.28q0,4.41,0,8.82c0,1,.11.85-1.07.86-.44,0-.87,0-1.31,0S28.69,15.31,28.8,14.61Z"/><path class="cls-1" d="M15.76,9.91c.1-1.24.13-2.43.32-3.61a2.93,2.93,0,0,1,3-2.37c1.79-.12,3.21.56,3.73,1.91a5.39,5.39,0,0,1,.34,1.91A43.41,43.41,0,0,1,23,13c-.27,2.33-2.86,3.42-5.39,2.4a2.24,2.24,0,0,1-1.51-1.76C15.91,12.36,15.86,11.11,15.76,9.91Zm5-.05c0-.7,0-1.4,0-2.1a6.81,6.81,0,0,0,0-1,1.16,1.16,0,0,0-1.23-1,1.12,1.12,0,0,0-1.19,1,4,4,0,0,0,0,.54c0,1.66,0,3.32,0,5a2.34,2.34,0,0,0,.07.77,1.25,1.25,0,0,0,2.23.11,2,2,0,0,0,.15-.76C20.75,11.57,20.74,10.71,20.74,9.86Z"/><path class="cls-1" d="M32.5,29.25c1.41,0,1.44,0,1.33-1.21A1.21,1.21,0,0,0,32.44,27a1.14,1.14,0,0,0-1.25,1.1C31.09,29.25,31.09,29.25,32.5,29.25Z"/><path class="cls-1" d="M25.14,30.55c0,.91,0,1.81,0,2.72,0,.75-.4,1.1-1.19,1.1s-1.22-.35-1.23-1.09q0-2.8,0-5.6c0-.78.46-1.16,1.27-1.14s1.15.37,1.16,1.13C25.14,28.63,25.14,29.59,25.14,30.55Z"/><path class="cls-1" d="M32.5,29.25c-1.41,0-1.41,0-1.31-1.18A1.14,1.14,0,0,1,32.44,27,1.21,1.21,0,0,1,33.83,28C33.94,29.22,33.91,29.25,32.5,29.25Z"/></g></g></svg>