<svg xmlns="http://www.w3.org/2000/svg" viewBox="0 0 23.65 19.23"><defs><style>.cls-1{fill:#fff;}</style></defs><title>ICONE ENVOYER-PUBLIER</title><g id="Calque_2" data-name="Calque 2"><g id="Calque_1-2" data-name="Calque 1"><path class="cls-1" d="M17.74,16.25c0-.88,0-1.74,0-2.59a.61.61,0,0,1,.12-.42c.91-.75,1.83-1.48,2.83-2.28,0,.55,0,1,0,1.46,0,1.26,0,2.52,0,3.79a3,3,0,0,1-3,3H3a2.92,2.92,0,0,1-3-3Q0,11.11,0,6A2.83,2.83,0,0,1,2.69,3c2.38-.09,4.76,0,7.26,0l-1,.8c-.79.64-1.58,1.28-2.39,1.89a1.21,1.21,0,0,1-.66.24c-1,0-1.93,0-2.93,0V16.25Z"/><path class="cls-1" d="M5.92,13.28c-.18-4.58,4-10.11,10.32-10.36V0l7.41,5.92-7.37,5.89V8.91a12,12,0,0,0-5.63,1A16.39,16.39,0,0,0,5.92,13.28Z"/></g></g></svg>