<svg xmlns="http://www.w3.org/2000/svg" viewBox="0 0 58.33 80">
    <defs>
        <style>.cls-1{fill:#939498;}</style>
    </defs>
    <title>icone rapide connexion</title>
    <g id="Calque_2" data-name="Calque 2">
        <g id="Calque_1-2" data-name="Calque 1">
            <path class="cls-1"
                  d="M6.51,39.93c0-5.3-.12-10.5,0-15.69a28.69,28.69,0,0,1,1.11-8C10.5,7.67,16.3,2.08,25,.45c9.42-1.76,17.05,1.72,22.76,9.64a22.62,22.62,0,0,1,4.05,12.84,3.26,3.26,0,0,1-3.49,3.71H45.62a3.08,3.08,0,0,1-3.44-3.26A13.92,13.92,0,0,0,39,14.66c-3.88-4.39-8.69-5.76-14-3.88A12.25,12.25,0,0,0,16.33,22.3C16,28.1,16.27,33.94,16.27,40h36.2c4.08,0,5.86,1.8,5.86,5.95q0,14,0,28.1c0,4-1.82,5.93-5.74,5.93H5.87c-4,0-5.81-1.83-5.81-6,0-9,.12-18-.06-27C-.08,42.92,1.06,39.93,6.51,39.93Z"/>
        </g>
    </g>
</svg>