<svg xmlns="http://www.w3.org/2000/svg" viewBox="0 0 15.5 15.5"><defs><style>.cls-1{fill:#999;}</style></defs><title>icone copyright</title><g id="Calque_2" data-name="Calque 2"><g id="Calque_1-2" data-name="Calque 1"><path class="cls-1" d="M0,7.67A7.75,7.75,0,1,1,7.74,15.5,7.76,7.76,0,0,1,0,7.67Zm1.79,0a6,6,0,1,0,5.59-5.9A6,6,0,0,0,1.79,7.69Z"/><path class="cls-1" d="M10.47,4.44c-.15.35-.29.7-.45,1a.53.53,0,0,1-.71.26,6,6,0,0,0-1.14-.27,1.76,1.76,0,0,0-2,1.4,3.53,3.53,0,0,0,0,1.88A1.63,1.63,0,0,0,7.91,10a10.45,10.45,0,0,0,1.67-.22c.37-.06.53,0,.53.42,0,.12,0,.24,0,.36,0,.66,0,.74-.66.92a5,5,0,0,1-2.63.07,3.27,3.27,0,0,1-2.5-3.13,8.29,8.29,0,0,1,.11-1.89A3.43,3.43,0,0,1,7.83,3.79,5,5,0,0,1,10.47,4.44Z"/></g></g></svg>