<svg xmlns="http://www.w3.org/2000/svg" viewBox="0 0 41.7 47.85"><defs><style>.cls-1{fill:#8cc63f;}</style></defs><title>icone poubelle</title><g id="Calque_2" data-name="Calque 2"><g id="Calque_1-2" data-name="Calque 1"><path class="cls-1" d="M29.7,6h7.07c3.11,0,4.87,1.73,4.91,4.83,0,.75,0,1.5,0,2.24,0,1.22-.5,1.69-1.71,1.71H38.59c-.18,1.94-.37,3.81-.54,5.69q-.91,10-1.82,20.09c-.09,1-.17,2-.25,3a4.46,4.46,0,0,1-4.68,4.32H10.37a4.41,4.41,0,0,1-4.67-4.4Q4.5,29.63,3.23,15.82c0-.31-.09-.62-.15-1.06-.5,0-1,0-1.53,0A1.37,1.37,0,0,1,0,13.26c0-1,0-2.06,0-3.08A4.29,4.29,0,0,1,4.43,6c2.15,0,4.3,0,6.45,0H12c0-.62,0-1.15,0-1.67A4.33,4.33,0,0,1,16.34,0c2.93,0,5.85,0,8.78,0a4.32,4.32,0,0,1,4.57,4.2C29.74,4.76,29.7,5.32,29.7,6ZM2.82,11.89H38.88c0-.45,0-.82,0-1.19,0-1.35-.6-1.91-2-1.91H4.78c-1.38,0-1.93.56-2,1.91C2.81,11.07,2.82,11.44,2.82,11.89ZM24.74,37.1c0,.17-.06.73.18,1a2.29,2.29,0,0,0,1.45.73c.79,0,1.12-.68,1.19-1.43.17-1.92.33-3.84.51-5.76.27-3,.55-5.94.81-8.91a1.47,1.47,0,0,0-1.24-1.77,1.45,1.45,0,0,0-1.54,1.49C25.63,27.23,25.2,32,24.74,37.1Zm-7.78,0c-.28-3.23-.55-6.3-.82-9.36-.16-1.83-.33-3.65-.52-5.48a1.4,1.4,0,1,0-2.79.2c0,.22,0,.43.05.65q.35,3.85.69,7.71c.19,2.17.37,4.34.58,6.5.12,1.24,1.09,1.88,2,1.37A1.42,1.42,0,0,0,17,37.13Zm10-31.19c0-.56,0-1.05,0-1.54a1.53,1.53,0,0,0-1.63-1.57q-4.43,0-8.87,0A1.52,1.52,0,0,0,14.79,4.4c0,.49,0,1,0,1.53Z"/></g></g></svg>