<svg xmlns="http://www.w3.org/2000/svg" viewBox="0 0 53.98 53.79"><defs><style>.cls-1{fill:#00a99d;}</style></defs><title>icone tag user pro bleu</title><g id="Calque_2" data-name="Calque 2"><g id="Calque_1-2" data-name="Calque 1"><path class="cls-1" d="M30.54,53.76c-1.22-.43-2.77-.52-3.6-1.34C18.89,44.55,11,36.58,3,28.6a10.33,10.33,0,0,1-3-7.38C0,15.71,0,10.19,0,4.68,0,1.5,1.61,0,4.84,0c5.45,0,10.89,0,16.34,0a10.55,10.55,0,0,1,7.71,3.18Q40.61,14.87,52.29,26.6c2.27,2.28,2.25,4.4,0,6.7q-9.48,9.52-19,19a12.2,12.2,0,0,1-2.3,1.44ZM8.15,14.15a6,6,0,0,0,6,6A6.17,6.17,0,0,0,20.11,14a6,6,0,0,0-6-5.79A5.82,5.82,0,0,0,8.15,14.15Z"/><path class="cls-1" d="M30.54,53.76l.4,0-.19.08Z"/></g></g></svg>