<svg xmlns="http://www.w3.org/2000/svg" viewBox="0 0 30 40"><defs><style>.cls-1{fill:#00a99d;}</style></defs><title>icone cadenas connexion pro</title><g id="Calque_2" data-name="Calque 2"><g id="Calque_1-2" data-name="Calque 1"><path class="cls-1" d="M3.35,20c0-2.65-.06-5.25,0-7.84a14,14,0,0,1,.57-4A11.14,11.14,0,0,1,12.87.22c4.84-.88,8.77.86,11.71,4.82a11.09,11.09,0,0,1,2.09,6.42,1.65,1.65,0,0,1-1.79,1.86h-1.4a1.56,1.56,0,0,1-1.77-1.63,6.85,6.85,0,0,0-1.64-4.36,6.37,6.37,0,0,0-7.22-1.94A6.15,6.15,0,0,0,8.4,11.15c-.15,2.9,0,5.82,0,8.86H27c2.1,0,3,.9,3,3q0,7,0,14c0,2-.93,3-3,3H3c-2.08,0-3-.92-3-3,0-4.5.06-9,0-13.5C0,21.46.54,20,3.35,20Z"/></g></g></svg>