<svg xmlns="http://www.w3.org/2000/svg" viewBox="0 0 44.13 37.3"><defs><style>.cls-1{fill:#999;}</style></defs><title>icone recherche carte</title><g id="Calque_2" data-name="Calque 2"><g id="Calque_1-2" data-name="Calque 1"><path class="cls-1" d="M35.64,31.8a9.33,9.33,0,0,1-5.57,1.51,9.17,9.17,0,1,1,9.47-11.05,8.71,8.71,0,0,1-.73,5.91.7.7,0,0,0,.18,1c1.48,1.44,2.93,2.92,4.39,4.38a2.16,2.16,0,0,1,.72,2,2,2,0,0,1-1.43,1.61,2.1,2.1,0,0,1-2.2-.56L36.33,32.5Zm-5.07-.53a7.12,7.12,0,1,0-7.12-7.14A7.11,7.11,0,0,0,30.57,31.27Z"/><path class="cls-1" d="M0,30.44C0,22.16,0,14.27,0,6.38A2.34,2.34,0,0,1,1,4.61C4.16,3,7.36,1.6,10.78,0c.05.56.11.89.11,1.23,0,7.44,0,14.87,0,22.3A2.25,2.25,0,0,1,9.42,26C6.37,27.36,3.36,28.84,0,30.44Z"/><path class="cls-1" d="M23.08,5c0,3.45,0,6.74,0,10a2.27,2.27,0,0,1-.45,1.44c-3.25,3.37-4.13,7.36-3.08,12.2-2.34-1.13-4.41-2-6.38-3.13a2.27,2.27,0,0,1-.68-1.72c0-7.8,0-15.6,0-23.81Z"/><path class="cls-1" d="M24.82,14.7V5L35.34.06V13.75A13.24,13.24,0,0,0,24.82,14.7Z"/></g></g></svg>