<svg xmlns="http://www.w3.org/2000/svg" viewBox="0 0 43.51 40"><defs><style>.cls-1{fill:#8cc63f;}</style></defs><title>icone maison verte</title><g id="Calque_2" data-name="Calque 2"><g id="Calque_1-2" data-name="Calque 1"><path class="cls-1" d="M25.24,40c0-1.14,0-2.16,0-3.19,0-2,0-3.94,0-5.91,0-1.24-.47-1.7-1.67-1.72q-2.17,0-4.34,0c-1,0-1.41.43-1.41,1.52q0,4.1,0,8.2c0,.32,0,.64,0,1-.31,0-.56.07-.8.07L7,40a.92.92,0,0,1-1.05-1.06q0-8.51,0-17a1.1,1.1,0,0,1,.36-.73q7.79-6.78,15.6-13.53L22,7.6l3.19,2.93Q30.9,15.74,36.56,21a1.65,1.65,0,0,1,.59,1.35c0,5.32,0,10.64,0,16,0,1.43-.27,1.7-1.64,1.7Z"/><path class="cls-1" d="M0,20.2,22.12,0,43.51,20.08a2.12,2.12,0,0,1-2.77,1.06,7.21,7.21,0,0,1-2.18-1.3c-5.48-5-10.92-10.1-16.43-15.21L17.65,8.55C13.38,12.28,9.13,16,4.84,19.75a8.82,8.82,0,0,1-2.19,1.46C1.57,21.69.74,21.3,0,20.2Z"/><path class="cls-1" d="M38.37,13.7c-1.4-1.24-2.69-2.37-4-3.53a.81.81,0,0,1-.23-.53c0-1.64,0-3.28,0-5h4.21Z"/></g></g></svg>