<svg xmlns="http://www.w3.org/2000/svg" viewBox="0 0 110 110"><defs><style>.cls-1{fill:#bdccd4;}.cls-2{fill:#333;}</style></defs><title>img defaut oiseau</title><g id="Calque_2" data-name="Calque 2"><g id="Calque_1-2" data-name="Calque 1"><rect class="cls-1" width="110" height="110"/><path class="cls-2" d="M10.44,58c2,.82,4.09.29,6.12.13,5.79-.48,11.56-1.13,17.35-1.62a11.83,11.83,0,0,1,3.18.42c2,.4,4,1,6,1.25a11.24,11.24,0,0,1,6.36,2.64c2.74,2.45,6.13,3.85,9.41,5.45A17.71,17.71,0,0,1,67.49,75a3.07,3.07,0,0,1,.11.55c-1-.22-1.84-.44-2.72-.61a10.89,10.89,0,0,0-2-.26c-.73,0-1.23.38-1.34,1.37a1.41,1.41,0,0,1,2.17,0,3.29,3.29,0,0,0,1.72.65,5.82,5.82,0,0,1,4.76,3,37.71,37.71,0,0,0,2.47,3.35L73,82.9l-2.6-5,.27-.25a28,28,0,0,0,2.94.89c1.5.29,3,.43,4.53.65.74.11,1.47.26,2.24.4-.14-.86-.92-1.14-1.67-1.3-1-.21-2-.28-3-.43a2.51,2.51,0,0,1-1.25-.51l2.32-.91A11,11,0,0,0,74.95,76a4.82,4.82,0,0,0-1.55.22,3.49,3.49,0,0,1-3.73-1q-3.22-3.52-6.4-7.08a9.49,9.49,0,0,1-.67-1,9.34,9.34,0,0,1,4.77.76,7.57,7.57,0,0,0,3.35.63,4.33,4.33,0,0,1,3.91,2,12.29,12.29,0,0,0,1.26,1.25c.42.46.78,1,1.22,1.51.57-.38.29-1,0-1.51-.45-.7-1-1.33-1.52-2-.22-.3-.41-.63-.62-.94l.14-.32,9.35,2c-.32-1.18-1.2-1.55-5.86-2.4l3.22-.86a5.6,5.6,0,0,0-1.13-.54,1.74,1.74,0,0,0-1,.11c-2.92,1.21-3.62.51-6.51-.41.28-.09.44-.16.6-.2l.62-.13c7.5-1.85,13.23-5.9,16.29-13.2,1.4-3.34,1.23-6.82.84-10.34a22.32,22.32,0,0,1,0-5.21A6.47,6.47,0,0,1,95.82,32a29.88,29.88,0,0,0,3.74-1.74l-1.82-.79a.77.77,0,0,0-.31,0,15.4,15.4,0,0,1-8.53-2.06,6.41,6.41,0,0,0-1.36-.45H84.8a13.19,13.19,0,0,0-2.87,1,25.67,25.67,0,0,0-5,3.54,20.33,20.33,0,0,1-9.16,5.24c-2.64.75-5.17,1.91-7.73,2.93s-5,2.07-7.57,3.08c-1.88.75-3.86,1.32-5.65,2.23a27.32,27.32,0,0,1-8.9,2.66c-2.08.28-4.15.63-6.21,1a3.41,3.41,0,0,0-2.56,1.58l5.08,1c-4.68.47-9.2.95-13.73,1.38-2.51.24-5,.31-7.52.63a2.6,2.6,0,0,0-1.89,1.19,8,8,0,0,0,.09,2.85l-.72.39Z"/></g></g></svg>