<svg xmlns="http://www.w3.org/2000/svg" viewBox="0 0 119.19 100.88"><defs><style>.cls-1{fill:#939498;}.cls-2{fill:#00a99d;}.cls-3{fill:#949599;}.cls-4{fill:none;opacity:0.93;}</style></defs><title>logo pros</title><g id="Calque_2" data-name="Calque 2"><g id="Calque_1-2" data-name="Calque 1"><path class="cls-1" d="M34.13,48.75,47.07,33.37c4.13-4.91,8.28-9.79,12.38-14.73a14.19,14.19,0,0,1,16.85-4.2A13.89,13.89,0,0,1,84.56,29,13.65,13.65,0,0,1,73.63,41C66.11,42.58,58.55,44,51,45.47l-14.17,2.8C36.1,48.42,35.34,48.54,34.13,48.75Z"/><path class="cls-2" d="M70.06,11.51,76.91,8Q84,4.42,91.11.84c2.48-1.26,3.1-1.18,5.15.76,5.4,5.13,5,14.32-.95,18.45.1-2.06-.47-3.81-2.37-4.78A4.54,4.54,0,0,0,86.36,18c-.39,1.14-.68,2.31-1.14,3.9A17,17,0,0,0,79,14.3,19.11,19.11,0,0,0,70.06,11.51Z"/><path class="cls-2" d="M66.76,44.27,40.52,55.69c-2.27,1-4.55,2-7.2,3.1,2.17-3.33,4.1-6.33,6.08-9.29a1.61,1.61,0,0,1,1-.53q12.88-2.48,25.78-4.91a.6.6,0,0,1,.15,0Z"/><path class="cls-3" d="M67.08,45.85l-5.22,21a11.27,11.27,0,0,1-.48-1.1C60,61,58.66,56.25,57.27,51.48c-.21-.72-.31-1.28.57-1.65C60.79,48.6,63.72,47.31,67.08,45.85Z"/><path class="cls-2" d="M15.52,79.5V98.57q-.74-.89-1.82-2.13T11.35,93.8l-2.6-2.87Q7.4,89.46,6.15,88.05T3.87,85.44q-1-1.21-1.7-2.11L1.94,83l-.28-.37.08.82V97.73H0V78.66q.74.94,1.81,2.17t2.34,2.6l2.59,2.83,2.57,2.82q1.24,1.37,2.31,2.58t1.76,2.11a1.35,1.35,0,0,0,.2.32l.28.37-.08-.84V79.5Z"/><path class="cls-2" d="M33.21,98.44q-.51-1.17-1.2-2.88t-1.43-3.63h-7q-.74,1.92-1.43,3.63T21,98.44H19.22l1-2.44q.64-1.52,1.38-3.33l1.53-3.77,1.53-3.77q.74-1.81,1.37-3.32t1-2.45q.38.94,1,2.45t1.38,3.32L31,88.9l1.54,3.77L33.94,96q.63,1.52,1,2.44Zm-6.38-14.6q-.51,1.2-1.21,2.94t-1.44,3.65H30l-1.46-3.65q-.69-1.74-1.2-2.94a2.53,2.53,0,0,1-.13-.34c-.05-.16-.09-.31-.13-.45,0,.14-.08.29-.13.45A2.63,2.63,0,0,1,26.83,83.83Z"/><path class="cls-1" d="M90.88,98.44V80.21h4.42a7.75,7.75,0,0,1,2.22.32,5.55,5.55,0,0,1,1.9,1,4.91,4.91,0,0,1,1.33,1.66,5.26,5.26,0,0,1,.5,2.37,6.43,6.43,0,0,1-.69,2.91,4.62,4.62,0,0,1-2.27,2.12l.61,1L99.74,93l1,1.57,1,1.56.84,1.35.61,1H101q-.2-.31-.54-.84l-.74-1.2L98.84,95l-.89-1.46-.83-1.35-.68-1.1a2.71,2.71,0,0,1-.54.05H92.61v7.3Zm1.74-9h2.71a4.55,4.55,0,0,0,2-.41,3.73,3.73,0,0,0,1.29-1,3.68,3.68,0,0,0,.66-1.28,4.58,4.58,0,0,0,.19-1.24,3.58,3.58,0,0,0-.27-1.35A3.64,3.64,0,0,0,98.46,83a3.77,3.77,0,0,0-1.3-.84,4.82,4.82,0,0,0-1.81-.32H92.61Z"/><path class="cls-1" d="M119.19,90.09v7.25a9.31,9.31,0,0,1-2.37,1,11,11,0,0,1-2.78.34,10.16,10.16,0,0,1-3.87-.7A8.68,8.68,0,0,1,107.23,96a8.58,8.58,0,0,1-1.88-2.88,9.67,9.67,0,0,1,2.13-10.42,9.29,9.29,0,0,1,3-2,9.4,9.4,0,0,1,3.64-.72,11,11,0,0,1,2.64.33,8.46,8.46,0,0,1,2.39,1l-.87,1.43a7.36,7.36,0,0,0-2-.8,8.82,8.82,0,0,0-2.21-.29,7.24,7.24,0,0,0-2.95.61,8.1,8.1,0,0,0-2.45,1.66A7.71,7.71,0,0,0,107,86.39a7.63,7.63,0,0,0-.61,3,7.79,7.79,0,0,0,.55,2.91,7.36,7.36,0,0,0,1.54,2.41,7.22,7.22,0,0,0,2.4,1.63A7.85,7.85,0,0,0,114,97a8.84,8.84,0,0,0,1.77-.19,8.34,8.34,0,0,0,1.78-.57v-4.6h-3.93V90.09Z"/><path class="cls-2" d="M66.09,93.13c-3.5,2.59-5.12,2.59-8.56,0a11.89,11.89,0,0,1-2.33,4c-3.1,3.36-6.85,4.54-11.11,3.32a10.9,10.9,0,0,1-7.94-8.72,11.94,11.94,0,0,1,3.72-11.92c1.1-1,2.09-2.18,3.12-3.28,1.38-1.47,2.7-3,4.15-4.41a6.63,6.63,0,0,1,7.78-1.45c1.19.52,2.33,1.2,3.56,1.62a10.72,10.72,0,0,0,8.07-.51c.84-.37,1.66-.79,2.5-1.17,2.45-1.12,4.68-.57,6.77,1a9,9,0,0,1,1.08,1c2.52,2.64,5.06,5.25,7.53,7.93a11.9,11.9,0,0,1,2.84,12,11,11,0,0,1-20.9,1.28ZM47,98.3A9,9,0,0,0,55.85,89c0-5.13-3.95-9.36-8.75-9.37A9.33,9.33,0,0,0,47,98.3ZM76.57,79.64a9,9,0,0,0-8.8,9.27c0,5.18,3.93,9.39,8.78,9.39a9.35,9.35,0,0,0,0-18.67ZM59.18,88.91a2.75,2.75,0,0,0,2.61,2.85,2.8,2.8,0,1,0-2.61-2.85Z"/><path class="cls-2" d="M64.92,71.46a4.46,4.46,0,0,1,8.5-2.06l-1.19-.14a8,8,0,0,0-4.24.85C67,70.58,66,71,64.92,71.46Z"/><path class="cls-2" d="M50.2,69.41A4.45,4.45,0,0,1,55.28,67a4.37,4.37,0,0,1,3.42,4.39l-1-.41c-1.15-.48-2.28-1-3.46-1.43a7.44,7.44,0,0,0-3.44-.17Z"/><path class="cls-1" d="M58.47,89.11a3.39,3.39,0,1,1,3.37,3.46A3.41,3.41,0,0,1,58.47,89.11Z"/><path class="cls-4" d="M67.77,88.69a9.17,9.17,0,0,1,8.94-9.22c4.89,0,8.82,4.33,8.78,9.59a9.13,9.13,0,0,1-8.92,9.24C71.69,98.25,67.72,93.92,67.77,88.69Z"/></g></g></svg>