<svg xmlns="http://www.w3.org/2000/svg" viewBox="0 0 136.72 131.55">
    <defs>
        <style>.cls-1{fill:#8CC63F;}</style>
    </defs>
    <title>menu burger</title>
    <g id="Calque_2" data-name="Calque 2">
        <g id="Calque_1-2" data-name="Calque 1">
            <path class="cls-1"
                  d="M68.64,51.44H130c5.34,0,6.68,1.32,6.69,6.56q0,8.14,0,16.28c0,4.17-1.6,5.8-5.8,5.81q-18,0-36,0H6.79C1.25,80.1,0,78.88,0,73.42s0-11,0-16.55c0-3.67,1.66-5.39,5.37-5.41,7.47-.05,14.95,0,22.42,0Z"/>
            <path class="cls-1"
                  d="M68.38,131.55H6.19c-4.89,0-6.18-1.3-6.19-6.12q0-7.87,0-15.75c0-5.42,1.16-6.61,6.52-6.61H112.74c6,0,12.1,0,18.15,0,4.31,0,5.8,1.49,5.82,5.74q0,8.54,0,17.08c0,4.09-1.53,5.65-5.61,5.65Q99.73,131.56,68.38,131.55Z"/>
            <path class="cls-1"
                  d="M68.36,0h61.92c5.16,0,6.43,1.28,6.43,6.47s0,10.32,0,15.48-1.48,6.53-6.46,6.53H6.4C1.49,28.48,0,27,0,22.18Q0,13.91,0,5.63C0,1.54,1.52,0,5.63,0Q37,0,68.36,0Z"/>
        </g>
    </g>
</svg>