<svg xmlns="http://www.w3.org/2000/svg" viewBox="0 0 40 40"><defs><style>.cls-1{fill:#8CC63F;}</style></defs><title>PROFIL USER NAV</title><g id="Calque_2" data-name="Calque 2"><g id="Calque_1-2" data-name="Calque 1"><path class="cls-1" d="M20,40H3c-2,0-2.8-.95-3-3-.24-2.55,1.18-4.28,2.61-6A14.57,14.57,0,0,1,4.85,29,5.88,5.88,0,0,1,9.3,27.48a5.06,5.06,0,0,0,3.68-1,4.94,4.94,0,0,0,2-3.78,3.78,3.78,0,0,0-.74-3A13.49,13.49,0,0,1,13,17.29a18,18,0,0,0-1-1.71,3.26,3.26,0,0,1-.36-3.32A5,5,0,0,0,12,10.64c.07-1.48,0-3,.11-4.45A6.43,6.43,0,0,1,17.25.31a12,12,0,0,1,6.08.16A6.11,6.11,0,0,1,27.95,6.2c.11,1.55.05,3.12.11,4.68a3.24,3.24,0,0,0,.3,1.25,3.12,3.12,0,0,1-.52,3.68,1.78,1.78,0,0,0-.43.54c-.53,1.59-1.56,2.94-2.22,4.44a4.74,4.74,0,0,0,.71,4.59,4.26,4.26,0,0,0,3.89,2.07c3.85-.37,6.19,1.83,8.32,4.51.29.36.5.8.8,1.15,1.16,1.38,1.17,3,1,4.65A2.49,2.49,0,0,1,37.29,40Z"/></g></g></svg>